<svg xmlns="http://www.w3.org/2000/svg" viewBox="0 0 61.62 17.17"><defs><style>.cls-1,.cls-17{fill:#fff;}.cls-2{fill:#191919;}.cls-3{fill:#fbe17a;}.cls-4{fill:#fae079;}.cls-5{fill:#f4a919;}.cls-6{fill:#ed1c24;}.cls-16,.cls-7{fill:#232323;}.cls-8{fill:#6b2811;}.cls-9{fill:#fdf9ea;}.cls-10{fill:#741113;}.cls-11{fill:#af1e24;}.cls-12{fill:#e8393c;}.cls-13{fill:#e5cbb2;}.cls-14{fill:#fefefe;}.cls-15{fill:#321e16;}.cls-16,.cls-17{font-size:2.44px;font-family:MyriadPro-Bold, Myriad Pro;font-weight:700;}</style></defs><g id="Capa_2" data-name="Capa 2"><g id="Capa_1-2" data-name="Capa 1"><path class="cls-1" d="M5,17.17a1.77,1.77,0,0,1-1.32-.6,1.37,1.37,0,0,1-.37-1.07,2.08,2.08,0,0,1-.6.09,1.87,1.87,0,0,1-1.6-.95,3.55,3.55,0,0,1-.49-1.88v-.35L1,12.5a3.3,3.3,0,0,0,.73.09h.19a2.27,2.27,0,0,0,.53-.12,1.62,1.62,0,0,1-.54-.31,1.84,1.84,0,0,1-.53-1.33V10.5l.54.09.29.05a1.27,1.27,0,0,1-.5-.92l0-.23.5-.13a.84.84,0,0,0,.62-.66.53.53,0,0,0-.13-.5,1.45,1.45,0,0,0-.69-.42,3.51,3.51,0,0,1-1.19-.6,2.64,2.64,0,0,1-.43-.46,1.8,1.8,0,0,1-.1-1.8,3.58,3.58,0,0,1,.21-.39l0,0-.1-.27a6.61,6.61,0,0,1-.29-.89A1.83,1.83,0,0,1,.5,1.58,1.43,1.43,0,0,1,1.55,1.1a1.47,1.47,0,0,1,.86.3A2.29,2.29,0,0,1,3,.43,1.47,1.47,0,0,1,4,0,1.58,1.58,0,0,1,5,.35l.23.2L5.43.4A2,2,0,0,1,7.32.19a1.75,1.75,0,0,1,1,2l0,.13a1.38,1.38,0,0,1,.42.21,1,1,0,0,1,.37.53,2.75,2.75,0,0,1,.4,0h.25a1.53,1.53,0,0,1,.36.07,2.08,2.08,0,0,1,.4.14,1.38,1.38,0,0,1,.92,1.33,1.85,1.85,0,0,1-.08.49A5,5,0,0,1,9.77,7.44a6.41,6.41,0,0,1-.57.41l-.15.09a6.11,6.11,0,0,0,1.24,2.77l.1.13-.07.15a1.43,1.43,0,0,1-.8.68,1.38,1.38,0,0,0,.24.14l.5.25.2.09a3.8,3.8,0,0,1,.71.43,2.59,2.59,0,0,1,.37.37A1.77,1.77,0,0,1,12,14.56a1.33,1.33,0,0,1-.58.86A1.77,1.77,0,0,1,9.86,17l-.32,0a2.17,2.17,0,0,1-1.64-.88,1.9,1.9,0,0,1-.4,0,1.59,1.59,0,0,1-.75-.2l-.06.11a1.81,1.81,0,0,1-1.4,1Zm.66-4.76a1.09,1.09,0,0,1,0,.45l-.06.26-.06.21-.29.05.25.07,0,.1-.13.29,0,.09a2.09,2.09,0,0,1-.13.23l-.1.16L5,14.51l-.16.19-.17.19a1.75,1.75,0,0,0-.29.32.66.66,0,0,0-.11.58.68.68,0,0,0,.42.41,1,1,0,0,0,.41.08A1,1,0,0,0,5.76,16a1.59,1.59,0,0,0,.13-.13,2.48,2.48,0,0,0,.18-.24c0-.08.07-.13.1-.18h.28l-.24-.09,0-.15.28,0-.25-.07.07-.37.09-1H7L7,14v.29c0,.15,0,.3,0,.45s0,.2,0,.26,0,.2.18.29a.68.68,0,0,0,.23.05.46.46,0,0,0,.29-.12,1,1,0,0,0,.3-.4l0-.09a.75.75,0,0,0,0-.21l.26-.11-.26,0,0-.1a3.48,3.48,0,0,0-.25-.75l0-.09a6.86,6.86,0,0,1-.54-1.64c0-.14,0-.29,0-.44v-.05A4.7,4.7,0,0,1,6,10.19a12.16,12.16,0,0,1-1.5-2.54,2.68,2.68,0,0,1-.22-.73,1,1,0,0,1,.2-.8.87.87,0,0,1,.66-.28,1.53,1.53,0,0,1,.3,0L6,6l.31.1.12,0H6.5l.1.26V6.23l0,0,0,0h0l0,0h0l.07,0a2.09,2.09,0,0,0,.43-.84.17.17,0,0,0,0-.18,3.16,3.16,0,0,0-.77-.75,1.52,1.52,0,0,0-.85-.27,1.48,1.48,0,0,0-1,.44,2.73,2.73,0,0,0-.87,2,2,2,0,0,0,.05.5A.47.47,0,0,1,4,6.92H4.2l0,.24a1.6,1.6,0,0,1,0,.49,2.29,2.29,0,0,0,0,.25l.22,0,.1.22a1.74,1.74,0,0,1,.07.3,3.15,3.15,0,0,1-1.17,2.71,2,2,0,0,1-1,.42.66.66,0,0,0,.38.16h0a1.69,1.69,0,0,0,.79-.22l.17-.09.22.23,0,.17a1.69,1.69,0,0,1-.61,1.16l-.26.2-.08,0L3,13.26l-.14.07a1.69,1.69,0,0,1-.31.11l-.14,0-.11,0-.15,0H1.61a1.93,1.93,0,0,0,.26.62,1.11,1.11,0,0,0,.9.5H2.9a1.63,1.63,0,0,0,.84-.24l.18-.12L4,14.23l.17-.15.28.1-.08-.08H4.3V14l.11-.12h0l0,0,.14-.17.1-.16.11-.17.1-.2L5,12.85c0-.1.08-.21.11-.31l.35-1Zm2.89,3.31a1.45,1.45,0,0,0,.64.33.85.85,0,0,0,.23,0,.94.94,0,0,0,1-.87,1.63,1.63,0,0,0-.17-.8,2.23,2.23,0,0,0-.39-.57l-.36-.36-.19-.18.3-.34.22,0a2.39,2.39,0,0,1,.56.34,2.47,2.47,0,0,1,.73.92h0a1.3,1.3,0,0,0-.54-.89A4.41,4.41,0,0,0,10,13l-.2-.12a3,3,0,0,1-1.14-1l-.71-.17a3.42,3.42,0,0,0,.19.65c.09.22.2.43.31.64s.18.35.26.53a2.89,2.89,0,0,1,.21.65,1.37,1.37,0,0,1,0,.19A1.91,1.91,0,0,1,8.56,15.72ZM2.73,10.06a.49.49,0,0,0,.3.12A.47.47,0,0,0,3.41,10a2.55,2.55,0,0,0,.4-1l0-.18h0l-.32.1V8.27l0,.05a2,2,0,0,1,0,.43A1.65,1.65,0,0,1,2.73,10.06Zm4-1.89A3.18,3.18,0,0,0,8,9.65a3,3,0,0,1-.1-1A1.08,1.08,0,0,0,7.72,8a.33.33,0,0,0-.2-.17.77.77,0,0,1,.16.75l0,.16-.18,0a.47.47,0,0,1-.51-.36c-.06-.16-.1-.23-.17-.27ZM1.2,6.34A3.14,3.14,0,0,0,2,6.87L2.19,7a5.37,5.37,0,0,1,.65.37l.13.1-.06-.24a1.62,1.62,0,0,0-.52-.91l-1-.81-.36-.3a.59.59,0,0,1,0,.08,1,1,0,0,0-.12.46v.09l-.25.13.27,0L1,6,1,6.12l.11.15L1,6.47Zm6,.21-.05.06A.84.84,0,0,1,7,6.72,2.3,2.3,0,0,0,8.5,5.93c.11-.12.2-.25.3-.38s.17-.23.26-.34A4.27,4.27,0,0,1,10.3,4.09a1.6,1.6,0,0,0-.86-.23,1.47,1.47,0,0,0-1.39.89c-.06.15-.11.31-.17.46l-.12.34c-.08.22-.18.44-.28.65l-.05.1a.6.6,0,0,1-.2.17ZM1.61,2.07a.39.39,0,0,0-.29.13,1.36,1.36,0,0,0-.25.4,1.52,1.52,0,0,0,.09,1.2,2.63,2.63,0,0,0,.51.77l.16.17A2.11,2.11,0,0,0,2.08,5l.17.16.59.55,0,0v0a2,2,0,0,0,0-.84l-.17-.63L2.36,3a1.34,1.34,0,0,0-.44-.76A.47.47,0,0,0,1.61,2.07ZM7.47,4.38a2.22,2.22,0,0,1,1-1c-.07-.17-.18-.27-.32-.27a.53.53,0,0,0-.31.14,1.83,1.83,0,0,0-.58.8ZM4.07,1.06a.69.69,0,0,0-.48.19,1.38,1.38,0,0,0-.42,1,4.78,4.78,0,0,0,.1,1.07c0,.22.09.44.14.67l.09.36a3.18,3.18,0,0,1,.63-.64s0,0,.09-.24a3.43,3.43,0,0,0,.06-.34,2.76,2.76,0,0,1,.06-.4l0-.19c.08-.36.18-.72.28-1.08a.43.43,0,0,0,0-.09A.74.74,0,0,0,4.07,1.06ZM5.5,3.25a2.16,2.16,0,0,1,1.11.32l.09-.14c.19-.27.37-.55.54-.82l.13-.24c0-.09.07-.18.11-.26a.86.86,0,0,0-.08-.77A1,1,0,0,0,6.58,1a1.22,1.22,0,0,0-1.21.86,7.83,7.83,0,0,0-.25.78c0,.11-.11.49-.11.49a1.94,1.94,0,0,0,0,.2A2,2,0,0,1,5.5,3.25Z"/><path class="cls-2" d="M11.34,13.12a2.06,2.06,0,0,0-.33-.33,4.09,4.09,0,0,0-.67-.4l-.71-.34a1.28,1.28,0,0,1-.56-.5,1.55,1.55,0,0,0,1-.68A6.27,6.27,0,0,1,8.77,7.81a9.94,9.94,0,0,0,.83-.57A4.72,4.72,0,0,0,11.12,5a1.88,1.88,0,0,0,.08-.43c0-.49-.23-.81-.78-1.08a2.09,2.09,0,0,0-.35-.13,1.8,1.8,0,0,0-.32-.06,2.63,2.63,0,0,0-.83.06.84.84,0,0,0-.32-.63A1.3,1.3,0,0,0,8,2.54a3.1,3.1,0,0,0,.09-.39A1.48,1.48,0,0,0,7.22.44,1.69,1.69,0,0,0,5.58.62L5.2.9C5.07.78,5,.66,4.83.56A1.22,1.22,0,0,0,3.17.62a2.06,2.06,0,0,0-.54,1c0,.1,0,.19-.1.38-.08-.12-.11-.18-.15-.23a1.15,1.15,0,0,0-1.69,0A1.57,1.57,0,0,0,.32,3.27,10.06,10.06,0,0,0,.74,4.51C.66,4.67.55,4.84.46,5A1.53,1.53,0,0,0,.54,6.57,2.4,2.4,0,0,0,.92,7,3.16,3.16,0,0,0,2,7.53a1.68,1.68,0,0,1,.81.5A.79.79,0,0,1,3,8.76a1.07,1.07,0,0,1-.82.85l-.27.08c.06.62.46.88,1,1a1.11,1.11,0,0,1-.68.24c-.22,0-.44-.06-.68-.09A1.56,1.56,0,0,0,2.05,12a1.42,1.42,0,0,0,1.17.31,2.19,2.19,0,0,1-1.32.58,3,3,0,0,1-1-.1,3.32,3.32,0,0,0,.46,1.75,1.6,1.6,0,0,0,2,.7l.28-.09c0,.11,0,.18-.05.26a1.11,1.11,0,0,0,.27,1,1.5,1.5,0,0,0,1.37.5A1.59,1.59,0,0,0,6.46,16l.19-.37A1.32,1.32,0,0,0,8,15.86a1.88,1.88,0,0,0,1.83.9,1.53,1.53,0,0,0,1.3-1.5,1,1,0,0,0,.57-.76A1.51,1.51,0,0,0,11.34,13.12Zm-.82-9.2.17.15,0,0,0,0h0s0,.07,0,.07A3.16,3.16,0,0,0,9.26,5.38c-.2.23-.36.5-.57.73a2.74,2.74,0,0,1-2.9.76A8.22,8.22,0,0,1,5,6.57a.15.15,0,0,0-.09.22c.08.19.15.39.24.58a7.65,7.65,0,0,0,2.18,2.8A4,4,0,0,0,9.12,11l.32.08a1.48,1.48,0,0,1-1.32.13A2.86,2.86,0,0,1,7,10.51,8.27,8.27,0,0,1,5.27,8.25a6.73,6.73,0,0,1-.52-1.16c-.21-.67.07-.94.75-.76.26.06.51.13.77.21a.8.8,0,0,0,.57-.06l.09-.05H7l0,0,0,0a.17.17,0,0,0,0-.12H7l0,0h0a.15.15,0,0,0,.13-.06l0,0a.25.25,0,0,0,0-.07c.1-.21.19-.42.27-.64s.19-.54.3-.8A1.82,1.82,0,0,1,10.52,3.92ZM7.12,7.66A.54.54,0,0,1,8,7.84a1.36,1.36,0,0,1,.18.79A2.48,2.48,0,0,0,8.3,9.78c.07.13.14.26.2.39l-.07.06a3.74,3.74,0,0,1-2-2.11l.23-.3a.56.56,0,0,1,.52.43c0,.11,0,.26.25.23C7.55,8.12,7.23,7.93,7.12,7.66ZM8.74,3.53a2.1,2.1,0,0,0-1.2,1.36l-.63-.78a2.13,2.13,0,0,1,.71-1.06C8.1,2.67,8.61,2.87,8.74,3.53ZM6.57.73A1.07,1.07,0,0,1,7.73,2.19l-.12.29-.15.27c-.24.4-.51.78-.77,1.19a1.91,1.91,0,0,0-2-.27,1.3,1.3,0,0,1,0-.76c0-.11,0-.23.08-.34a7,7,0,0,1,.26-.81A1.48,1.48,0,0,1,6.57.73ZM2.9,2.27a1.72,1.72,0,0,1,.5-1.21,1,1,0,0,1,1.51.17.36.36,0,0,1,0,.32c-.1.36-.2.72-.29,1.08a1.16,1.16,0,0,1,0,.18c-.06.25-.06.5-.12.74a.66.66,0,0,1-.19.39,3.12,3.12,0,0,0-.81,1s0,0-.13.11C3.26,4.45,3.11,3.92,3,3.39A5.25,5.25,0,0,1,2.9,2.27ZM.82,2.5A1.52,1.52,0,0,1,1.13,2a.67.67,0,0,1,1,0,1.72,1.72,0,0,1,.53.91c0,.1,0,.2.08.31s0,.22.08.34.11.41.16.62.05.2.08.31a2.81,2.81,0,0,1,.08.31,2.18,2.18,0,0,1,0,1c0,.17,0,.34-.07.54l-.16-.15c-.28-.27-.56-.55-.85-.8L2,5.24,1.9,5.17,1.7,5l-.06-.06-.13-.14,0,0A3.06,3.06,0,0,1,.91,3.9,1.8,1.8,0,0,1,.82,2.5ZM2.34,10l.19-.11a1.39,1.39,0,0,0,.15-2.34,5.3,5.3,0,0,0-.78-.42A3.68,3.68,0,0,1,1,6.53L1,6.47l0,0,0,0,0,0,0,0a.08.08,0,0,0,0,0v0l0,0v0s0,0,0,0h0s0,0,0,0h0V6s0,0,0,0V5.7A1.16,1.16,0,0,1,.8,5.12C.86,5,.94,4.89,1,4.77L1.33,5l.08.07.39.32.76.65a1.88,1.88,0,0,1,.61,1c.06.28.16.55.25.87l.37-.41v.89l.31-.09c.1.2,0,.39,0,.57a2.78,2.78,0,0,1-.44,1.15A.73.73,0,0,1,2.34,10ZM7.9,15.42a.7.7,0,0,1-.8.09A.51.51,0,0,1,6.76,15a1.09,1.09,0,0,0,0-.18s0,0,0-.07c0-.24,0-.49,0-.73H6.69l-.06.71s0,.07,0,.1h0a.19.19,0,0,1,0,.08v0s0,.06,0,.09a.44.44,0,0,1,0,.1.25.25,0,0,1,0,.07v0a.29.29,0,0,1,0,.09l0,.09,0,.07v0l0,.07-.09.17,0,0a1.46,1.46,0,0,1-.17.24l0,0-.15.14a1.26,1.26,0,0,1-1.38.26.9.9,0,0,1-.43-1.39,3.16,3.16,0,0,1,.39-.43l.09-.1h0l.07-.08v0l.07-.09.08-.09a.35.35,0,0,1,0-.08L5,14.06l0,0,.11-.18v0l0-.08h0a.36.36,0,0,0,0-.09l0,0a.54.54,0,0,1,0-.11l0-.08v0a.64.64,0,0,0,0-.07s0,0,0-.05h0l0-.08,0-.12a.29.29,0,0,1,0-.09v-.05s0-.07,0-.1a.79.79,0,0,0,0-.34c0,.16-.1.32-.16.48l-.13.31-.06.11,0,.09H5l-.06.1a.47.47,0,0,0,0,.1l-.07.09h0a.56.56,0,0,1,0,.08l-.08.1,0,.07,0,0-.06.07h0l-.07.08-.06.05,0,0-.08.08-.07.06-.06,0h0l0,0-.07,0L4,14.59l0,0-.09.05a1.91,1.91,0,0,1-1.12.27,1.39,1.39,0,0,1-1.1-.62,2.34,2.34,0,0,1-.35-1h.82l.12,0h.12l.12,0,.23-.08,0,0,.06,0,.06,0L3,13l0,0H3l.06,0,.23-.18a1.43,1.43,0,0,0,.51-1l-.05,0a1.75,1.75,0,0,1-.95.24A.87.87,0,0,1,2,11.28a1.66,1.66,0,0,0,1.24-.38A2.86,2.86,0,0,0,4.33,8.41a1.29,1.29,0,0,0-.06-.25l-.14,0L4,8.23c-.12-.36,0-.7,0-1-.25,0-.26.25-.44.32a2,2,0,0,1-.2-1A3,3,0,0,1,4.29,4.3a1.73,1.73,0,0,1,2.22-.19,3.54,3.54,0,0,1,.83.81.42.42,0,0,1,.07.42A2.53,2.53,0,0,1,7,6.23l0,0s0,0,0,0l-.14.08h0l-.06,0h0l-.06,0h0a1,1,0,0,1-.25,0l-.16,0c-.28-.08-.56-.19-.85-.26a.62.62,0,0,0-.83.75,2.09,2.09,0,0,0,.19.66A12.69,12.69,0,0,0,6.16,10,4.63,4.63,0,0,0,7.44,11.2c0,.2,0,.4,0,.6A6.48,6.48,0,0,0,8,13.46a5.19,5.19,0,0,1,.28.81s0,.07,0,.1v0a.13.13,0,0,1,0,.06v0a1.12,1.12,0,0,1,0,.27s0,0,0,.06a.14.14,0,0,0,0,.06A1.28,1.28,0,0,1,7.9,15.42ZM11.07,15a2.53,2.53,0,0,0-.87-1.46,2.29,2.29,0,0,0-.5-.3l0,0c.13.12.25.25.37.38a2.6,2.6,0,0,1,.44.64,1.83,1.83,0,0,1,.19.93,1.21,1.21,0,0,1-1.52,1.08,1.8,1.8,0,0,1-.93-.58,1.62,1.62,0,0,0,.45-1.34c0-.05,0-.1,0-.16a2.54,2.54,0,0,0-.19-.59c-.18-.39-.4-.77-.57-1.17a5.14,5.14,0,0,1-.23-.79,1.05,1.05,0,0,1,0-.3l1.14.27a2.75,2.75,0,0,0,1.21,1,6.25,6.25,0,0,1,.66.43l0,0a1.57,1.57,0,0,1,.63,1.07A.8.8,0,0,1,11.07,15Z"/><path class="cls-3" d="M7,6.22a.71.71,0,0,1-.8.17c-.28-.08-.56-.19-.85-.26a.62.62,0,0,0-.83.75,2.09,2.09,0,0,0,.19.66A12.69,12.69,0,0,0,6.16,10,4.63,4.63,0,0,0,7.44,11.2c0,.2,0,.4,0,.6A6.48,6.48,0,0,0,8,13.46a5,5,0,0,1,.28.82,1.15,1.15,0,0,1-.42,1.14.7.7,0,0,1-.8.09A.51.51,0,0,1,6.76,15c0-.32,0-.65,0-1H6.69l-.06.71a2.22,2.22,0,0,1-.69,1.49,1.26,1.26,0,0,1-1.38.26.9.9,0,0,1-.43-1.39,3.16,3.16,0,0,1,.39-.43,3.56,3.56,0,0,0,.92-1.82.79.79,0,0,0,0-.34c0,.16-.1.32-.16.48a3.28,3.28,0,0,1-1.38,1.71,1.91,1.91,0,0,1-1.12.27,1.39,1.39,0,0,1-1.1-.62,2.34,2.34,0,0,1-.35-1h.51a2.15,2.15,0,0,0,1.49-.53,1.43,1.43,0,0,0,.51-1l0,0H3.76a1.75,1.75,0,0,1-.95.24A.87.87,0,0,1,2,11.28a1.66,1.66,0,0,0,1.24-.38A2.86,2.86,0,0,0,4.33,8.41a1.29,1.29,0,0,0-.06-.25l-.14,0L4,8.23c-.12-.36,0-.7,0-1-.25,0-.26.25-.44.32a2,2,0,0,1-.2-1A3,3,0,0,1,4.29,4.3a1.73,1.73,0,0,1,2.22-.19,3.54,3.54,0,0,1,.83.81.42.42,0,0,1,.07.42A2.53,2.53,0,0,1,7,6.23Zm-1.3-.9a1.66,1.66,0,0,0-.32.12,1.29,1.29,0,0,0-.3.22c-.07.07-.07.16.08.23a1.09,1.09,0,0,1,1-.43l-.32-.37a.79.79,0,0,0-.74-.35c-.41,0-.61.39-.52.89C5,5,5.27,4.91,5.69,5.32Z"/><path class="cls-4" d="M9.65,13.28a3.35,3.35,0,0,1,.81,1,1.83,1.83,0,0,1,.19.93,1.21,1.21,0,0,1-1.52,1.08,1.8,1.8,0,0,1-.93-.58,1.64,1.64,0,0,0,.43-1.5,2.54,2.54,0,0,0-.19-.59c-.18-.39-.4-.77-.57-1.17a5.14,5.14,0,0,1-.23-.79,1.05,1.05,0,0,1,0-.3l1.14.27a2.75,2.75,0,0,0,1.21,1,6.41,6.41,0,0,1,.7.45,1.57,1.57,0,0,1,.63,1.07.8.8,0,0,1-.28.78A2.41,2.41,0,0,0,9.7,13.23l-.15,0v.05Z"/><path class="cls-5" d="M7,6.22H7c.15.06.21,0,.26-.14s.19-.42.27-.64.19-.54.3-.8a1.82,1.82,0,0,1,2.71-.73l.25.21s0,.08,0,.08A3.22,3.22,0,0,0,9.26,5.38c-.2.23-.36.5-.57.73a2.74,2.74,0,0,1-2.9.76A8.22,8.22,0,0,1,5,6.57a.15.15,0,0,0-.09.22c.08.19.15.39.24.58a7.65,7.65,0,0,0,2.18,2.8A4,4,0,0,0,9.12,11l.32.08a1.48,1.48,0,0,1-1.32.13A2.86,2.86,0,0,1,7,10.51,8.27,8.27,0,0,1,5.27,8.25a6.73,6.73,0,0,1-.52-1.16c-.21-.67.07-.94.75-.76.26.06.51.13.77.21a.8.8,0,0,0,.57-.06C6.94,6.44,7.05,6.37,7,6.22Z"/><path class="cls-6" d="M6.69,3.94a1.91,1.91,0,0,0-2-.27,1.3,1.3,0,0,1,0-.76,8,8,0,0,1,.34-1.15,1.48,1.48,0,0,1,1.45-1A1.07,1.07,0,0,1,7.73,2.19a2.89,2.89,0,0,1-.27.56C7.22,3.15,7,3.53,6.69,3.94Z"/><path class="cls-6" d="M3.08,6.28l-.16-.15c-.28-.27-.56-.55-.85-.8A4.23,4.23,0,0,1,.91,3.9,1.8,1.8,0,0,1,.82,2.5,1.52,1.52,0,0,1,1.13,2a.67.67,0,0,1,1,0,1.72,1.72,0,0,1,.53.91c.16.62.31,1.26.48,1.89a2.18,2.18,0,0,1,0,1C3.12,5.91,3.1,6.08,3.08,6.28Z"/><path class="cls-6" d="M2.34,10l.19-.11a1.39,1.39,0,0,0,.15-2.34,5.3,5.3,0,0,0-.78-.42A3.68,3.68,0,0,1,1,6.53,1.12,1.12,0,0,1,.8,5.12C.86,5,.94,4.89,1,4.77c.54.45,1.05.87,1.55,1.3a1.88,1.88,0,0,1,.61,1c.06.28.15.55.25.87l.37-.41v.89l.31-.09c.1.2,0,.39,0,.57a2.78,2.78,0,0,1-.44,1.15A.73.73,0,0,1,2.34,10Z"/><path class="cls-6" d="M3.35,5A15.8,15.8,0,0,1,2.9,2.27a1.72,1.72,0,0,1,.5-1.21,1,1,0,0,1,1.51.17.36.36,0,0,1,0,.32q-.18.63-.33,1.26c-.06.25-.06.5-.12.74a.66.66,0,0,1-.19.39,3.12,3.12,0,0,0-.81,1S3.43,4.94,3.35,5Z"/><path class="cls-6" d="M8.43,10.23a3.74,3.74,0,0,1-2-2.11l.23-.3a.56.56,0,0,1,.52.43c0,.11,0,.26.25.23.12-.36-.2-.55-.31-.82A.54.54,0,0,1,8,7.84a1.36,1.36,0,0,1,.18.79A2.5,2.5,0,0,0,8.3,9.78c.07.13.14.26.2.39Z"/><path class="cls-6" d="M7.54,4.89l-.63-.78a2.13,2.13,0,0,1,.71-1.06c.48-.38,1-.18,1.12.48A2.1,2.1,0,0,0,7.54,4.89Z"/><path class="cls-7" d="M5.69,5.32C5.27,4.91,5,5,4.58,5.63c-.09-.5.11-.85.52-.89a.79.79,0,0,1,.74.35l.32.37a1.09,1.09,0,0,0-1,.43C5,5.82,5,5.73,5.07,5.66a1.29,1.29,0,0,1,.3-.22A1.66,1.66,0,0,1,5.69,5.32Z"/><path class="cls-8" d="M3.76,11.71h.08l0,0Z"/><path class="cls-8" d="M9.76,13.43l-.11,0v0l.15,0Z"/><path class="cls-9" d="M34.27,10.07l-.15.31L34,10.14h0v0h0l.21,0Z"/><path class="cls-10" d="M47.51,11.89l-.23,0-.27,0-.09-.13,0,0h0l-.06-.07h0l0,0h0l-.11-.12-.06-.05-.12-.1,0,0,0,0h0l0,0,0,0-.06,0h0l-.06,0h0l0,0h0l-.05,0,0,0h0l0,0,0,0-.07-.09,0-.05h0l-.07-.11-.07-.1-.05-.07,0-.07h0l0,0,0,0,0-.05-.08-.09,0-.05h0l0,0s0,0,0,0h0L45.25,10l0,0h0l-.07-.06h0l0,0,0,0h0L45,9.79l0,0,0,0-.06,0-.06,0,0,0,0,0,0,0-.07,0,0,0h0l0,0,0,0,0,0,0,0h0l-.06,0-.06,0h0l-.07,0h0l-.13,0h-.77l.07,0,.12,0h.05l.06,0,.13,0h0l.08,0h1.06l.06,0h.17l.06,0,.15.05.15.07,0,0h0l.07,0,0,0h0l0,0h0l.11.07.07,0h0l.06,0,.11.09,0,0,0,0,.07.06.06.06.05.05,0,.06.07.08h0l.06.07.11.15h0l0,.05.06.08,0,.07.3.45a.56.56,0,0,0,0,.08l0,0,.12.2h0l.06.1a.59.59,0,0,0,0,.08l0,.08,0,.09v.06l0,0h0l0,.08s0,0,0,0h0Z"/><path class="cls-11" d="M45.8,11.38l.11.18,0,0a1.43,1.43,0,0,1-.26.19h0l0-.06h0v0l0-.08a.86.86,0,0,0-.07-.1l-.07,0v-.08l-.15-.08h0l0-.06h0A.33.33,0,0,0,45,11l0,0,0,0,0,0h0a.25.25,0,0,0-.18-.19l-.15-.14h0l0,0,0,0,0,0,0,0h0l-.06,0h0l-.06,0-.08,0L44,10.3l-.06,0H43l-.12,0-.13,0-.12,0h0l-.08,0h0l-.06,0-.06,0-.06,0h0l0,0-.06,0-.06,0-.07,0-.13.07-.07,0,0,0,0,0h0l-.07.06-.07,0-.05,0-.06,0h0l-.06.05,0,0h0l-.06.06h0l0-.05v0h0a0,0,0,0,1,0,0,.28.28,0,0,1,0-.09v0h0v-.05l0,0,.11-.13h0v0h0l0,0,0,0,0,0,0,0,.06-.07.07-.07.07-.07h0l.08-.07.09-.07h0l.17-.12.18-.12a1.18,1.18,0,0,1,.19-.11l.1-.05.14-.07h0l0,0h0l.07,0h0l.08,0,.1,0h.27l.24,0h0l0,0h0s0,0,0,0h-.08l-.18,0h0a1.81,1.81,0,0,0-.68.22,4.66,4.66,0,0,0-.77.47l-.14.12a.32.32,0,0,0-.08.12l0,.06,0-.06a.14.14,0,0,0,.12,0l.07-.06a3,3,0,0,1,.73-.39,4.54,4.54,0,0,1,.63-.18l.14,0h.09a1.77,1.77,0,0,1,.46,0h0l.14,0h0a1.7,1.7,0,0,1,.44.18l.19.13a.91.91,0,0,1,.21.18,6.15,6.15,0,0,1,.68.76l.06.07A1.51,1.51,0,0,1,45.8,11.38Z"/><path class="cls-12" d="M41.68,9.31l.1-.05c.16-.15.32-.31.49-.45a2.83,2.83,0,0,1,.45-.32,3.16,3.16,0,0,1,.72-.34,2.3,2.3,0,0,1,.9-.11,2.85,2.85,0,0,1,1.4.52,3.83,3.83,0,0,1,1.14,1.32c.08.16.14.34.21.52a.12.12,0,0,1-.13-.08l-.27-.44A3.56,3.56,0,0,0,46,9a2.36,2.36,0,0,0-.42-.28,3.11,3.11,0,0,0-.64-.3,2.36,2.36,0,0,0-.79-.11,2.7,2.7,0,0,0-.87.21,4.92,4.92,0,0,0-.68.37,3.42,3.42,0,0,0-.71.6c-.12.14-.23.29-.34.44a2.25,2.25,0,0,1-.24.3l0-.33v0l0,0A2.87,2.87,0,0,1,41.68,9.31Z"/><path class="cls-10" d="M45.64,7.82c.24.06.48.11.71.18a3.38,3.38,0,0,1,.95.52l.49.43.1.05h0l0,0,0,0,0,.07h0l0,0h0q0,.08.06.06h0l0,0h0l0,.07h0l0,0a.45.45,0,0,1,.11.13,2,2,0,0,1,.2.35,3.06,3.06,0,0,0,.28.49.42.42,0,0,1,0,.26,5.78,5.78,0,0,0-.7-.77,3.3,3.3,0,0,0-1-.69A1,1,0,0,0,47,9a.54.54,0,0,1-.36-.26,4.37,4.37,0,0,0-.69-.67,3.15,3.15,0,0,0-.27-.19v-.1Z"/><path class="cls-12" d="M46,11.55v0L46,11.5l-.07.06-.11-.18a1.51,1.51,0,0,0-.18-.26l-.06-.07a6.15,6.15,0,0,0-.68-.76.91.91,0,0,0-.21-.18L44.48,10A1.7,1.7,0,0,0,44,9.8h0l-.14,0h0a1.77,1.77,0,0,0-.46,0h-.09l-.14,0a4.54,4.54,0,0,0-.63.18,3,3,0,0,0-.73.39l-.07.06a.14.14,0,0,1-.12,0h0a.32.32,0,0,1,.08-.12l.14-.12a4.66,4.66,0,0,1,.77-.47,1.81,1.81,0,0,1,.68-.22h0l.18,0h.08s0,0,0,0H44l.06,0h.07l.05,0h0l0,0h0l0,0,0,0,.05,0h0l.07,0,0,0,.12.06,0,0h0l0,0,0,0h0l0,0,0,0,.12.09L45,10l.06.05h0l.06,0h0l.06.06a1.54,1.54,0,0,1,.17.19l0,.06,0,0h0l.07.09,0,.05,0,.05a1.27,1.27,0,0,1,.13.19.21.21,0,0,1,0,.06h0l0,0,0,.07a.75.75,0,0,0,.07.12v0h0a.59.59,0,0,1,0,.08l0,0v0a.87.87,0,0,1,.07.17v0A.08.08,0,0,1,46,11.55Z"/><path class="cls-11" d="M48,9.06l0,0,0,0h0s0-.05,0-.07A4.12,4.12,0,0,0,46.55,8l-.07,0,.24-.13,0-.25a1,1,0,0,1,.22.09,3.8,3.8,0,0,1,.84.81c.12.15.25.29.39.44s0,0,.08,0l.06.07a5.08,5.08,0,0,1,.44,1.05,2,2,0,0,1,.06.26,3.06,3.06,0,0,1-.28-.49,2,2,0,0,0-.2-.35.45.45,0,0,0-.11-.13l0,0h0l0-.07h0l0,0h0s0-.07-.06-.06h0l0,0h0Z"/><path class="cls-13" d="M45.21,7.38c0-.1-.11-.15-.15-.23A.56.56,0,0,0,45,7.07c.05-.05.08,0,.12,0a2.69,2.69,0,0,0,.78.38,1.32,1.32,0,0,0,.56.08l.11.15c0,.09-.09.1-.16.11a1.33,1.33,0,0,1-1-.35s-.07-.07-.13-.06Z"/><path class="cls-12" d="M48.21,8.94s-.07,0-.08,0-.27-.29-.39-.44a3.8,3.8,0,0,0-.84-.81,1,1,0,0,0-.22-.09l-.09-.11H47c.15.14.33.29.48.46a6,6,0,0,1,.61.82C48.14,8.8,48.17,8.87,48.21,8.94Z"/><path class="cls-14" d="M46.16,11.3v0l0,0Z"/><path class="cls-10" d="M45.64,7.82l0,0,0,0Z"/><path class="cls-14" d="M26.28,7.58l0,0v0Z"/><path class="cls-11" d="M41.36,9.84l0,0Z"/><path class="cls-14" d="M46.94,9.21v0h0Z"/><path class="cls-15" d="M45.18,11.25A.54.54,0,0,1,45,11,.33.33,0,0,1,45.18,11.25Z"/><path class="cls-15" d="M45.36,11.53a.38.38,0,0,1-.15-.22l.15.08v.14Z"/><path class="cls-15" d="M44.86,10.91a.23.23,0,0,1-.18-.19A.25.25,0,0,1,44.86,10.91Z"/><path class="cls-15" d="M45.21,11.31l0-.06Z"/><path class="cls-12" d="M41.62,10.53l0-.06h0l0,.06Z"/><path class="cls-7" d="M30.34,14.49a1.68,1.68,0,0,1-1.43-.84,1.57,1.57,0,0,1-.17-1.57l.2-.43.47,0a.79.79,0,0,0,.32-.08,1.54,1.54,0,0,1-.21-.29,2.17,2.17,0,0,1-.34-1.16,2,2,0,0,1,.3-1,7,7,0,0,1,.45-.7A1.35,1.35,0,0,0,30.15,8a.34.34,0,0,0,0-.24L29.94,7l.7-.26a1.78,1.78,0,0,1,1.5.1l.14.08V6.62h.81A2,2,0,0,1,34.27,7,1.55,1.55,0,0,1,35,8.29a5.47,5.47,0,0,1-.79,2.4,13.21,13.21,0,0,1-1.73,2.5C31.62,14.09,31,14.49,30.34,14.49Z"/><path class="cls-15" d="M44.93,11l0,0Z"/><path class="cls-15" d="M44.9,10.94l0,0Z"/><path class="cls-15" d="M45,11l0,0Z"/><path class="cls-12" d="M41.62,10.53l0,0,0,0Z"/><path class="cls-15" d="M45.54,11.83l0,0a1.74,1.74,0,0,1-.1-.19l0-.11h0v0l0,0v0h0v0l0,0,0,0v.05A.36.36,0,0,1,45.54,11.83Z"/><path class="cls-15" d="M48,9.16s.06,0,.06.06S48,9.21,48,9.16Z"/><path class="cls-15" d="M48,9.06l0,.07Z"/><path class="cls-15" d="M48.11,9.25l0,.07Z"/><path class="cls-15" d="M47.89,9l0,0Z"/><path class="cls-15" d="M48.14,9.32l0,0Z"/><path class="cls-15" d="M48,9.13l0,0Z"/><path class="cls-15" d="M48.08,9.22l0,0Z"/><path class="cls-7" d="M15.62,12.14a2.51,2.51,0,0,1-1.72-.69,2.14,2.14,0,0,1-.8-1.64,3.45,3.45,0,0,1,.61-1.76,3.15,3.15,0,0,1-.22-.33,1.74,1.74,0,0,1-.23-.84,1.82,1.82,0,0,1,.18-.79A2.14,2.14,0,0,1,14,5.41,3.67,3.67,0,0,1,14.74,5a4.23,4.23,0,0,1,.94-.26,6.51,6.51,0,0,1,1.11-.08,3.26,3.26,0,0,1,1.87.53,2,2,0,0,1,.95,1.71,1.82,1.82,0,0,1-.73,1.43l-.18.14a2,2,0,0,1,.11.6,2.45,2.45,0,0,1-.23,1.1,3.41,3.41,0,0,1-.62.94,3.19,3.19,0,0,1-1,.74A3,3,0,0,1,15.62,12.14Z"/><path class="cls-7" d="M47.28,12.29a2.07,2.07,0,0,1-.35,0,2.79,2.79,0,0,1-.35-.11,2.18,2.18,0,0,1-.64-.43,1,1,0,0,1-.13-.15,2.34,2.34,0,0,1-.49-.8h-.09v-.35a1.66,1.66,0,0,1,0-.32,2.76,2.76,0,0,1,.12-.79l0-.05h0l0-.06L45.43,9l.11-.22a2,2,0,0,1,.1-.21l.15-.25.11-.16L46,8a2,2,0,0,1,.19-.22l.08-.09.19-.17a2.53,2.53,0,0,1,.42-.31h0l.16-.1a2.32,2.32,0,0,1,1-.26,1.89,1.89,0,0,1,1.11.41,1.49,1.49,0,0,1,.7,1.22,1.39,1.39,0,0,1-.22.8,1.12,1.12,0,0,1,.19.64,1.84,1.84,0,0,1-.48,1.16l-.07.09-.13.14a3.92,3.92,0,0,1-.74.59,2.09,2.09,0,0,1-.36.19l-.11.05,0,0h-.1a.79.79,0,0,1-.22.06h-.07A1.33,1.33,0,0,1,47.28,12.29Z"/><path class="cls-7" d="M51.25,12.32a1.31,1.31,0,0,1-.61-.15v.13h-.83a2,2,0,0,1-1.32-.47,1.72,1.72,0,0,1-.61-1.32,1.82,1.82,0,0,1,.26-.91c.12-.24.28-.51.46-.8s.32-.53.48-.82a5,5,0,0,0,.36-.81,2.2,2.2,0,0,0,.12-.65l0-.71.71-.1.26,0a1.64,1.64,0,0,1,1,.31,1.51,1.51,0,0,1,.62.93,1.32,1.32,0,0,1,1.08.64,2.2,2.2,0,0,1,.33,1.11h0a1.44,1.44,0,0,1-.26.85,1.15,1.15,0,0,1,.17.59,1.58,1.58,0,0,1-.2.77,2.67,2.67,0,0,1-.4.61,2.43,2.43,0,0,1-.65.54A1.78,1.78,0,0,1,51.25,12.32Z"/><path class="cls-7" d="M53.91,12.28a2.11,2.11,0,0,1-1.56-.7,2.17,2.17,0,0,1-.68-1.53A2.73,2.73,0,0,1,52,8.91a4,4,0,0,1,.64-1,3.61,3.61,0,0,1,.89-.72,2.24,2.24,0,0,1,1.15-.34A2,2,0,0,1,56,7.35a1.69,1.69,0,0,1,.6,1.31,1.87,1.87,0,0,1-.13.69,1.21,1.21,0,0,1,.18.66h0a1.84,1.84,0,0,1-.5,1.15,3.29,3.29,0,0,1-1,.77A2.52,2.52,0,0,1,53.91,12.28Z"/><path class="cls-7" d="M58.56,12.3a1.54,1.54,0,0,1-1.1-.49v.47h-.79a2,2,0,0,1-1.39-.57,1.64,1.64,0,0,1-.36-2.15A3.69,3.69,0,0,1,55.33,9l.36-.46a1.9,1.9,0,0,0,.23-.39A.53.53,0,0,0,56,7.89l0-.69.69-.11.34,0a2.15,2.15,0,0,1,.83.16l.12.06a1.61,1.61,0,0,1,1-.4,1.53,1.53,0,0,1,1.29.66,1.71,1.71,0,0,1,.36,1.11,1.64,1.64,0,0,1-.14.61,1,1,0,0,1,.24.74h0a2,2,0,0,1-.16.65,3.89,3.89,0,0,1-.34.63,2.39,2.39,0,0,1-.64.67A1.79,1.79,0,0,1,58.56,12.3Z"/><path class="cls-7" d="M20.42,12.05a1.62,1.62,0,0,1-1.35-.72h0a1.24,1.24,0,0,1-.79.3,1.36,1.36,0,0,1-1.14-.55,1.48,1.48,0,0,1-.33-.91V9.77l.31-.24a3.53,3.53,0,0,0,.63-.72,5.17,5.17,0,0,0,.56-.9,1.64,1.64,0,0,1,.62-1.24l.45-.33.46.31a1.72,1.72,0,0,0,.61.12l.3,0c.23,0,.31,0,.31,0l.43-.2.38.29a1.1,1.1,0,0,1,.33.38.93.93,0,0,1,.34.48l.18.51-.41.35a1.88,1.88,0,0,0-.28.35.9.9,0,0,1,.44.5,1.72,1.72,0,0,1,.07.5,2.08,2.08,0,0,1-.67,1.45A2,2,0,0,1,20.42,12.05Z"/><path class="cls-7" d="M22.8,12.15a1.9,1.9,0,0,1-1.44-.7,2.06,2.06,0,0,1-.6-1.34,3,3,0,0,1,.43-1.52,2.26,2.26,0,0,1,.71-.8,1.93,1.93,0,0,1,.65-.73A2.39,2.39,0,0,1,24,6.6a1.75,1.75,0,0,1,1.35.63,2,2,0,0,1,.51,1.36,3.18,3.18,0,0,1-.25,1.19A4.77,4.77,0,0,1,25,10.86a3.69,3.69,0,0,1-.93.88A2.33,2.33,0,0,1,22.8,12.15Z"/><path class="cls-7" d="M26,12.11a1.93,1.93,0,0,1-1.9-1.87,1.7,1.7,0,0,1,.32-1,1.31,1.31,0,0,1,.27-.3,1.58,1.58,0,0,1-.05-.38,1.73,1.73,0,0,1,.87-1.39,2.6,2.6,0,0,1,1.53-.53,1.83,1.83,0,0,1,1.17.41,1.57,1.57,0,0,1,.58,1.22,1.48,1.48,0,0,1-.52,1.13l-.1.08a1.9,1.9,0,0,1,.14.7,1.73,1.73,0,0,1-.85,1.46A2.58,2.58,0,0,1,26,12.11Z"/><path class="cls-7" d="M28.79,12.09a1.76,1.76,0,0,1-1.35-.69,2,2,0,0,1-.52-1.29,2.19,2.19,0,0,1,.18-.84,3.69,3.69,0,0,1,.3-.57l0,0a1.24,1.24,0,0,1-.11-.57,1.35,1.35,0,0,1,.41-.94l.45-.45.3.19a1.58,1.58,0,0,0,.07-.47V5.65h.79a3.48,3.48,0,0,1,.49,0,3.22,3.22,0,0,1,.5.11,1.41,1.41,0,0,1,.68.49,1.38,1.38,0,0,1,.24.81,1.17,1.17,0,0,1,0,.32,1.23,1.23,0,0,1,.16.71,1.6,1.6,0,0,1-.39,1,1.2,1.2,0,0,1,.19.66,1.71,1.71,0,0,1-.21.74,3.22,3.22,0,0,1-.41.63,2.53,2.53,0,0,1-.71.63A2,2,0,0,1,28.79,12.09Z"/><path class="cls-1" d="M15.62,11.76a2.09,2.09,0,0,1-1.46-.6,1.75,1.75,0,0,1-.67-1.35,3,3,0,0,1,.56-1.58L14.19,8a2.18,2.18,0,0,1-.36-.47,1.36,1.36,0,0,1,0-1.28,1.58,1.58,0,0,1,.46-.55,2.61,2.61,0,0,1,.64-.36,4.13,4.13,0,0,1,.85-.24,7,7,0,0,1,1-.08,2.92,2.92,0,0,1,1.66.47,1.6,1.6,0,0,1,.78,1.39A1.49,1.49,0,0,1,18.64,8a3,3,0,0,1-.43.29,1.57,1.57,0,0,1,.22.75,2.11,2.11,0,0,1-.2.93,3.1,3.1,0,0,1-.55.85,2.89,2.89,0,0,1-.9.65A2.7,2.7,0,0,1,15.62,11.76Zm.76-3.17a3.09,3.09,0,0,0-.53,1.14L16,9.58a1.6,1.6,0,0,0,.35-.7A1,1,0,0,0,16.38,8.59Z"/><path class="cls-1" d="M20.42,11.67a1.23,1.23,0,0,1-1-.56,2,2,0,0,1-.24-.43,1.18,1.18,0,0,1-.87.56,1,1,0,0,1-.84-.39,1.22,1.22,0,0,1-.25-.69V10l.17-.13a3.88,3.88,0,0,0,.7-.79,6.36,6.36,0,0,0,.63-1,1.24,1.24,0,0,1,.47-1l.23-.17.24.16a1.68,1.68,0,0,0,.78.18,2.12,2.12,0,0,0,.34,0,1.05,1.05,0,0,0,.47-.07l.22-.1.2.14a.75.75,0,0,1,.26.33.65.65,0,0,1,.28.35l.1.27-.22.18a3.09,3.09,0,0,0-.57.81l-.06.12h.19a.51.51,0,0,1,.49.34,1.18,1.18,0,0,1,0,.37,1.71,1.71,0,0,1-.56,1.18A1.61,1.61,0,0,1,20.42,11.67Z"/><path class="cls-1" d="M22.8,11.76a1.55,1.55,0,0,1-1.16-.56,1.68,1.68,0,0,1-.49-1.09,2.58,2.58,0,0,1,.37-1.33,1.7,1.7,0,0,1,.68-.72,1.46,1.46,0,0,1,.57-.69A2,2,0,0,1,24,7a1.43,1.43,0,0,1,1.07.5,1.68,1.68,0,0,1,.41,1.11,2.85,2.85,0,0,1-.23,1.05,4,4,0,0,1-.56,1,3.28,3.28,0,0,1-.83.79A1.92,1.92,0,0,1,22.8,11.76Z"/><path class="cls-1" d="M26,11.72a1.44,1.44,0,0,1-1.08-.46,1.42,1.42,0,0,1-.43-1,1.33,1.33,0,0,1,.24-.78,1.08,1.08,0,0,1,.43-.37A1.12,1.12,0,0,1,25,8.56a1.35,1.35,0,0,1,.7-1.08A2.29,2.29,0,0,1,27.05,7a1.43,1.43,0,0,1,.93.33,1.17,1.17,0,0,1,.44.92,1.1,1.1,0,0,1-.39.84,1.35,1.35,0,0,1-.35.22l.09.17a1.51,1.51,0,0,1,.16.68,1.32,1.32,0,0,1-.67,1.14A2.2,2.2,0,0,1,26,11.72Z"/><path class="cls-1" d="M30.34,14.11a1.25,1.25,0,0,1-1.1-.66,1.18,1.18,0,0,1-.16-1.2l.11-.23h.24a1.78,1.78,0,0,0,1-.44,1.17,1.17,0,0,1-.58-.51,1.9,1.9,0,0,1-.28-1,1.54,1.54,0,0,1,.25-.77,6.25,6.25,0,0,1,.43-.66,2,2,0,0,0,.28-.56.76.76,0,0,0,0-.47l-.11-.37.36-.14a1.43,1.43,0,0,1,.5-.09,1.47,1.47,0,0,1,.69.17,1.11,1.11,0,0,1,.62.82,2.83,2.83,0,0,0,.07-.63V7h.43a1.65,1.65,0,0,1,1,.32,1.16,1.16,0,0,1,.52,1,5.12,5.12,0,0,1-.75,2.22,12.4,12.4,0,0,1-1.68,2.42C31.43,13.74,30.85,14.11,30.34,14.11Z"/><path class="cls-7" d="M44.86,10v0a1.84,1.84,0,0,1-.15.58l0,.07a3.84,3.84,0,0,1-.33.59l0,0h0a.52.52,0,0,1-.08.11,2.44,2.44,0,0,1-.57.54,1.76,1.76,0,0,1-1,.33,1.51,1.51,0,0,1-1.17-.57l0,.55h-.76a2,2,0,0,1-1.25-.44h0l-.1-.11a1.45,1.45,0,0,1-.18-.17,1.94,1.94,0,0,1-.27-.43,1.57,1.57,0,0,1-.16-.74,1.52,1.52,0,0,1,.15-.62l.17-.29c.14-.23.32-.48.52-.75s.37-.52.54-.78a3.81,3.81,0,0,0,.42-.8l0-.08h0a2.24,2.24,0,0,0,.1-.39,1.92,1.92,0,0,0,0-.22l0-.67.66-.09h.27a1.55,1.55,0,0,1,.37,0,1.93,1.93,0,0,1,.67.29l0,0h0l0,0,.09.08,0,0h0a1.37,1.37,0,0,1,.35.7,1.44,1.44,0,0,1,.83.32l0,0,0,0s0,0,0,0,0,0,.05,0,.09.11.14.17a1.77,1.77,0,0,1,.32,1.12h0a2,2,0,0,1-.06.35c0,.05,0,.1,0,.15l0,.06h0l.1.22A1,1,0,0,1,44.86,10Z"/><path class="cls-1" d="M28.79,11.71a1.4,1.4,0,0,1-1.06-.55,1.64,1.64,0,0,1-.43-1.05,1.87,1.87,0,0,1,.15-.69,3.85,3.85,0,0,1,.27-.51l.15-.22a.82.82,0,0,1-.18-.58,1,1,0,0,1,.3-.67l.23-.23.27.17a.91.91,0,0,0,.2,0,2.26,2.26,0,0,0,.24-1V6h.4a2.89,2.89,0,0,1,.44,0,1.78,1.78,0,0,1,.43.1.91.91,0,0,1,.49.34,1,1,0,0,1,.17.59,1.23,1.23,0,0,1-.08.4l0,0A.74.74,0,0,1,31,8.1a1.21,1.21,0,0,1-.32.8l-.22.22L30.17,9a.5.5,0,0,0-.2,0,5,5,0,0,0-.33.63,1.13,1.13,0,0,0,.21-.24L30,9.15l.2,0h.05a.58.58,0,0,1,.57.66,1.38,1.38,0,0,1-.17.57,3.43,3.43,0,0,1-.37.57,2.43,2.43,0,0,1-.61.53A1.55,1.55,0,0,1,28.79,11.71Z"/><path class="cls-7" d="M44.76,12.23a1.73,1.73,0,0,1-1.3-.63,1.86,1.86,0,0,1-.55-1.27,1.89,1.89,0,0,1,.31-1,5.3,5.3,0,0,1,.51-.73,3.78,3.78,0,0,0,.37-.53.63.63,0,0,0,.11-.29l0-.67.29,0a1.53,1.53,0,0,1,.07-.36A1.51,1.51,0,0,1,45.25,6a1.77,1.77,0,0,1,.94-.27,1.29,1.29,0,0,1,1,.42,1.14,1.14,0,0,1,.22,1.15A1.45,1.45,0,0,1,46.8,8a1.85,1.85,0,0,1,.07.48,1.48,1.48,0,0,1-.21.71A1,1,0,0,1,47,10a1.85,1.85,0,0,1-.31.92,3.38,3.38,0,0,1-.71.83A1.9,1.9,0,0,1,44.76,12.23Z"/><path class="cls-1" d="M49.16,9.31l0,0a.6.6,0,0,0,.21-.18,1,1,0,0,0,.2-.63A1.1,1.1,0,0,0,49,7.57a1.53,1.53,0,0,0-.89-.34,1.82,1.82,0,0,0-.86.23l-.15.08h0a2.2,2.2,0,0,0-.38.28L46.55,8l-.07.08-.17.19a1.47,1.47,0,0,1-.1.13l-.1.15L46,8.74a1.86,1.86,0,0,0-.1.2l-.09.2a1.34,1.34,0,0,0-.07.18h0l0,.1a2.35,2.35,0,0,0-.11.68,1.43,1.43,0,0,0,0,.29h0a1.9,1.9,0,0,0,.48.93l.12.12a1.74,1.74,0,0,0,.52.36l.28.08.27,0,.23,0h.05l.23-.07h0l.17-.07a3.07,3.07,0,0,0,.31-.16,3.49,3.49,0,0,0,.66-.53l.12-.13.06-.08a1.48,1.48,0,0,0,.4-.92A.64.64,0,0,0,49.16,9.31Zm-.45.06-.05.05-.14.11a2,2,0,0,1-.43.26L48,9.84H47.9v0a.83.83,0,0,1,0-.15h0a1.07,1.07,0,0,1,.21-.37l.17-.17.07,0,0,.23h0v.05h0l.19,0Z"/><path class="cls-1" d="M51.25,11.93a1.32,1.32,0,0,1-1-.55l0,0a.72.72,0,0,0,0,.13l0,.43h-.43a1.59,1.59,0,0,1-1.07-.38,1.39,1.39,0,0,1-.48-1,1.46,1.46,0,0,1,.21-.72c.13-.24.28-.49.45-.77s.33-.55.49-.84a4.36,4.36,0,0,0,.39-.88,2.15,2.15,0,0,0,.14-.78V6.14l.36,0,.21,0a1.28,1.28,0,0,1,.77.24,1.11,1.11,0,0,1,.49,1v.09a1.75,1.75,0,0,1,.32,0,.91.91,0,0,1,.79.47,1.88,1.88,0,0,1,.27.92h0a1.25,1.25,0,0,1-.38.85.66.66,0,0,1,.28.58,1.17,1.17,0,0,1-.15.59,2.32,2.32,0,0,1-.35.53,1.94,1.94,0,0,1-.56.46A1.4,1.4,0,0,1,51.25,11.93Z"/><path class="cls-1" d="M53.91,11.9a1.76,1.76,0,0,1-1.29-.59,1.77,1.77,0,0,1-.57-1.26,2.33,2.33,0,0,1,.25-1,3.39,3.39,0,0,1,.58-.87,3.13,3.13,0,0,1,.8-.65,1.87,1.87,0,0,1,1-.29,1.64,1.64,0,0,1,1.09.38,1.32,1.32,0,0,1,.47,1,1.47,1.47,0,0,1-.19.73l.09.12a.82.82,0,0,1,.14.5h0a1.44,1.44,0,0,1-.4.9,3.16,3.16,0,0,1-.87.69A2.25,2.25,0,0,1,53.91,11.9Z"/><path class="cls-1" d="M58.56,11.91a1.15,1.15,0,0,1-1-.5,1.63,1.63,0,0,1-.31-.75.4.4,0,0,0-.06.13l-.07.2a.71.71,0,0,0-.05.16s0,.11,0,.18a1,1,0,0,0,0,.16v.41h-.4a1.65,1.65,0,0,1-1.13-.46,1.39,1.39,0,0,1-.49-1.06,1.36,1.36,0,0,1,.2-.63,5.77,5.77,0,0,1,.37-.54c.13-.15.25-.31.38-.47a2.64,2.64,0,0,0,.27-.46,1,1,0,0,0,.09-.4V7.53l.35-.06.29,0a1.75,1.75,0,0,1,.68.13.91.91,0,0,1,.3.19,1.43,1.43,0,0,1,1-.5,1.14,1.14,0,0,1,1,.5,1.45,1.45,0,0,1,.29.88,1.5,1.5,0,0,1-.24.73.5.5,0,0,1,.17.11.67.67,0,0,1,.17.51h0a1.62,1.62,0,0,1-.14.52,3.16,3.16,0,0,1-.3.57,2,2,0,0,1-.54.55A1.31,1.31,0,0,1,58.56,11.91Z"/><path class="cls-1" d="M44.76,11.85a1.37,1.37,0,0,1-1-.51,1.51,1.51,0,0,1-.45-1,1.53,1.53,0,0,1,.26-.77A5.46,5.46,0,0,1,44,8.88a3.83,3.83,0,0,0,.41-.59,1.05,1.05,0,0,0,.16-.46l0-.35.37,0a.79.79,0,0,1,0-.57,1.14,1.14,0,0,1,.49-.58,1.33,1.33,0,0,1,.74-.22.93.93,0,0,1,.72.29.75.75,0,0,1,.14.77,1.1,1.1,0,0,1-.48.59,1.83,1.83,0,0,1-.28.14,1,1,0,0,1,.2.64,1.84,1.84,0,0,1-.36.88.56.56,0,0,1,.49.61,1.47,1.47,0,0,1-.25.72,3.12,3.12,0,0,1-.64.74A1.52,1.52,0,0,1,44.76,11.85Z"/><path class="cls-1" d="M44.48,10v0a1.6,1.6,0,0,1-.12.45l0,.07a4.14,4.14,0,0,1-.3.53l0,0-.07.09a2.16,2.16,0,0,1-.49.46,1.39,1.39,0,0,1-.79.25,1.14,1.14,0,0,1-.94-.51h0l-.08-.12h0a2.4,2.4,0,0,1-.11-.23.49.49,0,0,1,0-.11h0a1.36,1.36,0,0,1-.07-.35h0v0h0l-.15.36h0c0,.08-.06.16-.08.23h0a1.37,1.37,0,0,0-.06.3l0,.39h-.39a1.61,1.61,0,0,1-1.11-.44h0l-.14-.15a1.46,1.46,0,0,1-.23-.34,1.43,1.43,0,0,1-.12-.58,1.08,1.08,0,0,1,.12-.45l.14-.26c.14-.22.31-.46.5-.72s.38-.52.56-.8a4.79,4.79,0,0,0,.46-.87.69.69,0,0,1,0-.1h0a2.85,2.85,0,0,0,.12-.46,1.24,1.24,0,0,0,0-.27V6.11l.34,0h.22a1.5,1.5,0,0,1,.52.1h0l0,0,.07,0,0,0a.41.41,0,0,1,.11.07,1,1,0,0,1,.49.9V7.3h.22a1.15,1.15,0,0,1,.73.25l0,0,0,0s0,0,0,0l0,0a1.71,1.71,0,0,1,.11.14,1.41,1.41,0,0,1,.26.88h0a1.37,1.37,0,0,1,0,.28l0,.12a1.42,1.42,0,0,1-.12.25v0l0,0a.53.53,0,0,1,.2.13l.09.14h0A.86.86,0,0,1,44.48,10Z"/><path class="cls-7" d="M38.23,9.31a.28.28,0,0,0,0,.09h.11A.39.39,0,0,1,38.23,9.31Z"/><path class="cls-1" d="M40.6,8.65l-.05,0-.1,0a2.09,2.09,0,0,0,.48-1.29V7.19h0a1.8,1.8,0,0,0-.09-.45,1.87,1.87,0,0,0-.39-.64l-.05,0a1.5,1.5,0,0,0-1.08-.47A2.73,2.73,0,0,0,38,6a5.09,5.09,0,0,0-1.23.94,5.8,5.8,0,0,0-.92,1.27,3.08,3.08,0,0,0-.39,1.42,2.24,2.24,0,0,0,.12.73,2.37,2.37,0,0,0,.49.87,1.92,1.92,0,0,0,1.51.76,3,3,0,0,0,1.2-.28,4.25,4.25,0,0,0,.52-.27l.18-.11.32-.24,0,0a4.35,4.35,0,0,0,.75-.81,1.61,1.61,0,0,0,.35-.91A.7.7,0,0,0,40.6,8.65Zm-1.42.86a2.38,2.38,0,0,1-1,.28c-.14,0-.23,0-.29-.11a.61.61,0,0,1,0-.27,2.33,2.33,0,0,1,.21-.89.54.54,0,0,0,.05-.11,1.55,1.55,0,0,0,.26.49,1,1,0,0,0,.3.25,1,1,0,0,0,.51.14l.23,0a1.34,1.34,0,0,0,.27-.07,2.33,2.33,0,0,1-.4.27Z"/><path class="cls-6" d="M15.62,11.35a1.72,1.72,0,0,1-1.19-.49,1.39,1.39,0,0,1-.54-1,2.74,2.74,0,0,1,.51-1.37,5.2,5.2,0,0,1,1.18-1.33,2.11,2.11,0,0,1,1.24-.55.65.65,0,0,1,.39.12.36.36,0,0,1,.15.26,4.59,4.59,0,0,0-1.3,1.38,3,3,0,0,0-.64,1.58c0,.2.1.3.28.3a.89.89,0,0,0,.61-.36A2.09,2.09,0,0,0,16.75,9a1.47,1.47,0,0,0-.16-1.05,1.52,1.52,0,0,0,.78-.34.89.89,0,0,0,.37-.68.48.48,0,0,0-.17-.39.7.7,0,0,0-.49-.15,2.49,2.49,0,0,0-1.39.47,4.46,4.46,0,0,0-1.13,1,1.7,1.7,0,0,1-.37-.46.94.94,0,0,1-.14-.46,1.06,1.06,0,0,1,.11-.45A1.11,1.11,0,0,1,14.5,6a2.21,2.21,0,0,1,.55-.32,3.31,3.31,0,0,1,.76-.21,6,6,0,0,1,1-.07,2.53,2.53,0,0,1,1.44.4,1.18,1.18,0,0,1,.59,1,1.09,1.09,0,0,1-.43.83,2.23,2.23,0,0,1-.93.45,1.05,1.05,0,0,1,.56.93,1.75,1.75,0,0,1-.16.75,2.88,2.88,0,0,1-.48.73,2.64,2.64,0,0,1-.77.56A2.39,2.39,0,0,1,15.62,11.35Z"/><path class="cls-6" d="M21.29,10.81a1.26,1.26,0,0,1-.87.45.86.86,0,0,1-.71-.39,1.35,1.35,0,0,1-.28-.76,1.65,1.65,0,0,1,.27-.82,4.56,4.56,0,0,1,.67-.88,2.69,2.69,0,0,1-.57,0,6.72,6.72,0,0,1-.37,1,5.15,5.15,0,0,1-.57,1c-.22.3-.42.45-.59.45a.59.59,0,0,1-.51-.23.76.76,0,0,1-.17-.44,4.28,4.28,0,0,0,.79-.88,6.15,6.15,0,0,0,.71-1.18v0a.91.91,0,0,1,.3-.77,2.14,2.14,0,0,0,1,.25,2.15,2.15,0,0,0,1-.09.41.41,0,0,1,.16.31.29.29,0,0,1,.24.18,3.59,3.59,0,0,0-.67.93,2.41,2.41,0,0,0-.37,1q0,.24.21.24A.52.52,0,0,0,21.3,10a.67.67,0,0,0,.23-.25l.08-.12a.09.09,0,0,1,.1.06.76.76,0,0,1,0,.24A1.32,1.32,0,0,1,21.29,10.81Z"/><path class="cls-6" d="M22.8,11.35a1.12,1.12,0,0,1-.85-.43,1.31,1.31,0,0,1-.4-.82A2.27,2.27,0,0,1,21.87,9c.22-.38.45-.58.67-.6A1,1,0,0,1,23,7.7a1.64,1.64,0,0,1,1-.31,1,1,0,0,1,.76.36,1.23,1.23,0,0,1,.31.84,2.3,2.3,0,0,1-.2.9,4.4,4.4,0,0,1-.5.9,3,3,0,0,1-.74.69A1.54,1.54,0,0,1,22.8,11.35ZM23,10c.21,0,.44-.17.69-.5a1.61,1.61,0,0,0,.37-.88.36.36,0,0,0,0-.19.16.16,0,0,0-.14-.07.85.85,0,0,0-.55.28l.05.09a1.62,1.62,0,0,0-.55,1C22.82,10,22.88,10,23,10Z"/><path class="cls-6" d="M26,11.31a1.13,1.13,0,0,1-1.11-1.07.93.93,0,0,1,.18-.55.66.66,0,0,1,.44-.29.87.87,0,0,0,.22.41.53.53,0,0,0,.37.23.21.21,0,0,0,.22-.22s0-.11-.13-.2l-.31-.27A1.8,1.8,0,0,1,25.58,9a.84.84,0,0,1-.14-.44q0-.37.54-.75a1.84,1.84,0,0,1,1.07-.38,1.07,1.07,0,0,1,.67.23.76.76,0,0,1,.29.61.66.66,0,0,1-.25.53.71.71,0,0,1-.45.21.87.87,0,0,0,0-.5A.27.27,0,0,0,27,8.32a.25.25,0,0,0-.18.08.37.37,0,0,0-.06.21.64.64,0,0,0,.12.34,2.1,2.1,0,0,0,.26.33,2.13,2.13,0,0,1,.26.4,1.15,1.15,0,0,1,.12.5,1,1,0,0,1-.5.8A1.82,1.82,0,0,1,26,11.31Z"/><path class="cls-6" d="M28.79,11.3a.93.93,0,0,1-.74-.41,1.22,1.22,0,0,1-.34-.78,1.34,1.34,0,0,1,.12-.52,2.78,2.78,0,0,1,.23-.46l.37-.54h0a.31.31,0,0,1-.22-.13.48.48,0,0,1-.1-.34.54.54,0,0,1,.18-.39,1.39,1.39,0,0,0,.65.08,2.8,2.8,0,0,0,.4-1.37l.39,0a2.49,2.49,0,0,1,.35.08.54.54,0,0,1,.28.2.56.56,0,0,1,.1.35,1.57,1.57,0,0,1-.23.66h.17c.13,0,.19.12.18.34a.8.8,0,0,1-.2.53,1.49,1.49,0,0,0-.62-.1,3.33,3.33,0,0,0-.63,1.42c0,.15.06.22.17.22a.89.89,0,0,0,.49-.19,1.4,1.4,0,0,0,.42-.42c.11,0,.17.07.17.25a.94.94,0,0,1-.12.38,2.87,2.87,0,0,1-.33.5,1.69,1.69,0,0,1-.51.44A1.12,1.12,0,0,1,28.79,11.3Z"/><path class="cls-6" d="M30.34,13.7a.88.88,0,0,1-.76-.47.84.84,0,0,1-.13-.81,2.24,2.24,0,0,0,1.28-.58A6,6,0,0,0,32,10.43a3.93,3.93,0,0,1-.63.54,1.19,1.19,0,0,1-.61.24.64.64,0,0,1-.55-.36A1.44,1.44,0,0,1,30,10.1a1.16,1.16,0,0,1,.19-.56,6.24,6.24,0,0,1,.41-.63,2.54,2.54,0,0,0,.34-.68,1.18,1.18,0,0,0,0-.72,1,1,0,0,1,.86.06.75.75,0,0,1,.43.72,1.32,1.32,0,0,1-.16.61,5.39,5.39,0,0,1-.31.59.94.94,0,0,0-.15.41c0,.09,0,.13.12.13a1,1,0,0,0,.85-.64,4.8,4.8,0,0,0,.51-2,1.17,1.17,0,0,1,.74.24.77.77,0,0,1,.35.65,4.75,4.75,0,0,1-.7,2,12,12,0,0,1-1.62,2.34C31.22,13.36,30.72,13.7,30.34,13.7Z"/><path class="cls-6" d="M37.56,11.56a1.54,1.54,0,0,1-1.2-.61,2.06,2.06,0,0,1-.51-1.34,2.66,2.66,0,0,1,.34-1.23A5.21,5.21,0,0,1,37,7.2a5,5,0,0,1,1.13-.87A2.41,2.41,0,0,1,39.32,6a1.12,1.12,0,0,1,.83.39,1.26,1.26,0,0,1,.37.9,1.71,1.71,0,0,1-.42,1.07,1.17,1.17,0,0,1-.93.53.62.62,0,0,1-.49-.24.77.77,0,0,1-.2-.49,1.36,1.36,0,0,0,.63-.46.88.88,0,0,0,.26-.55.18.18,0,0,0-.21-.2,1.19,1.19,0,0,0-.82.42,3.35,3.35,0,0,0-.66,1,2.58,2.58,0,0,0-.25,1.05c0,.52.25.79.74.79a2.79,2.79,0,0,0,1.18-.32,2.34,2.34,0,0,0,1-.89c.09,0,.13.15.13.33a1.24,1.24,0,0,1-.27.67,3.9,3.9,0,0,1-.68.74,4,4,0,0,1-1,.59A2.52,2.52,0,0,1,37.56,11.56Z"/><path class="cls-6" d="M42.66,11.5a.73.73,0,0,1-.61-.34,1.15,1.15,0,0,1-.22-.72A1.13,1.13,0,0,1,42,10a1.77,1.77,0,0,1,.27-.37,2.91,2.91,0,0,0,.26-.33A.58.58,0,0,0,42.61,9a.2.2,0,0,0,0-.16.14.14,0,0,0-.11-.06c-.27,0-.67.39-1.2,1.18a4.79,4.79,0,0,0-.56,1.55,1.2,1.2,0,0,1-.83-.33,1,1,0,0,1-.36-.76,1,1,0,0,1,.2-.5c.13-.21.29-.44.48-.7l.57-.81a5.7,5.7,0,0,0,.5-1,3,3,0,0,0,.22-1,1,1,0,0,1,.72.16.65.65,0,0,1,.3.62,3.61,3.61,0,0,1-.44,1.17c.41-.49.76-.74,1.06-.74a.73.73,0,0,1,.63.32,1.08,1.08,0,0,1,.2.63,1.41,1.41,0,0,1-.16.49,2.13,2.13,0,0,1-.28.43c-.1.12-.2.24-.29.37a.91.91,0,0,0-.14.32q0,.18.12.18a.52.52,0,0,0,.33-.21,3,3,0,0,0,.38-.47c.11,0,.16.08.15.25a1.34,1.34,0,0,1-.11.38,3.22,3.22,0,0,1-.29.5,1.75,1.75,0,0,1-.45.45A1,1,0,0,1,42.66,11.5Z"/><path class="cls-6" d="M44.76,11.44a1,1,0,0,1-.72-.38,1.11,1.11,0,0,1-.34-.73,1.22,1.22,0,0,1,.2-.57,4.61,4.61,0,0,1,.44-.62,4.49,4.49,0,0,0,.44-.64A1.47,1.47,0,0,0,45,7.85a1.33,1.33,0,0,1,.76.09.57.57,0,0,1,.32.56,2.35,2.35,0,0,1-.46.91,2.61,2.61,0,0,0-.46.83c0,.13.05.2.15.2a.5.5,0,0,0,.34-.15,3.32,3.32,0,0,0,.42-.51c.09,0,.14.07.14.21a1.16,1.16,0,0,1-.2.51,2.32,2.32,0,0,1-.55.64A1.08,1.08,0,0,1,44.76,11.44Zm1.59-4.07a.93.93,0,0,1-.52.16.5.5,0,0,1-.41-.16A.33.33,0,0,1,45.35,7a.79.79,0,0,1,.32-.37,1,1,0,0,1,.52-.15.53.53,0,0,1,.41.15.35.35,0,0,1,.06.37A.65.65,0,0,1,46.35,7.37Z"/><path class="cls-6" d="M47.28,11.5a1.19,1.19,0,0,1-.89-.45,1.4,1.4,0,0,1-.4-1,2.13,2.13,0,0,1,.18-.81,3.14,3.14,0,0,1,.46-.79,2.68,2.68,0,0,1,.68-.62,1.57,1.57,0,0,1,.8-.24,1.18,1.18,0,0,1,.65.26.73.73,0,0,1,.37.58.56.56,0,0,1-.1.37.27.27,0,0,1-.24.12c0-.25-.11-.37-.24-.37a1,1,0,0,0-.71.42,1.39,1.39,0,0,0-.36.92.3.3,0,0,0,.1.25.33.33,0,0,0,.22.08A2,2,0,0,0,49,9.68c.07,0,.11.11.11.24a1.12,1.12,0,0,1-.3.66,3.09,3.09,0,0,1-.74.65A1.58,1.58,0,0,1,47.28,11.5Z"/><path class="cls-6" d="M51.25,11.52a.94.94,0,0,1-.69-.4,1.54,1.54,0,0,1-.38-.93,3.53,3.53,0,0,0-.37,1.32,1.19,1.19,0,0,1-.81-.28,1,1,0,0,1-.33-.75,1,1,0,0,1,.17-.51,7.73,7.73,0,0,1,.43-.75c.17-.27.33-.55.5-.85a4.8,4.8,0,0,0,.42-.95,2.76,2.76,0,0,0,.16-.93,1,1,0,0,1,.69.16.7.7,0,0,1,.31.62A3.09,3.09,0,0,1,51,8.44a1.52,1.52,0,0,1,1.09-.72.57.57,0,0,1,.45.28,1.42,1.42,0,0,1,.2.72.91.91,0,0,1-.34.63,2.89,2.89,0,0,1-.76.55,1.77,1.77,0,0,1-.68.2h-.08a.83.83,0,0,0,.32.26,1.09,1.09,0,0,0,.41.09.74.74,0,0,0,.49-.16,2.26,2.26,0,0,0,.41-.41c.08,0,.13.11.14.27a1.05,1.05,0,0,1-.11.4,2.21,2.21,0,0,1-.3.45,1.78,1.78,0,0,1-.45.37A1.07,1.07,0,0,1,51.25,11.52Zm-.8-1.84a3,3,0,0,0,.83-.34c.24-.15.35-.28.35-.4s-.06-.18-.17-.18A.76.76,0,0,0,51,9,3,3,0,0,0,50.45,9.68Z"/><path class="cls-6" d="M53.91,11.49a1.37,1.37,0,0,1-1-.46,1.41,1.41,0,0,1-.45-1,1.8,1.8,0,0,1,.21-.8A3,3,0,0,1,53.88,7.9a1.47,1.47,0,0,1,.75-.23,1.2,1.2,0,0,1,.82.28.88.88,0,0,1,.33.71,1.35,1.35,0,0,1-.49,1,1.51,1.51,0,0,1-1.06.47.67.67,0,0,1-.64-.34s0,.06,0,.12a.47.47,0,0,0,.16.36.53.53,0,0,0,.36.13,2.64,2.64,0,0,0,.85-.18,2,2,0,0,0,.81-.46.47.47,0,0,1,.07.26,1.08,1.08,0,0,1-.31.64,2.48,2.48,0,0,1-.75.6A1.84,1.84,0,0,1,53.91,11.49Zm-.12-2.24a2.35,2.35,0,0,0,.93-.42q.24-.2.06-.24h-.09a.86.86,0,0,0-.44.2A1.59,1.59,0,0,0,53.79,9.25Z"/><path class="cls-6" d="M58.56,11.5a.75.75,0,0,1-.62-.34,1.13,1.13,0,0,1-.25-.72,1,1,0,0,1,.14-.44,1.77,1.77,0,0,1,.27-.37,2.16,2.16,0,0,0,.27-.33A.61.61,0,0,0,58.49,9c0-.15-.05-.22-.15-.22s-.51.26-.89.79l-.1.17-.11.18a1.24,1.24,0,0,0-.1.17l-.11.19a.75.75,0,0,1-.09.19l-.09.2a1.65,1.65,0,0,1-.07.2,1.15,1.15,0,0,0-.06.21c0,.07,0,.14,0,.21a1.7,1.7,0,0,0,0,.22,1.22,1.22,0,0,1-.85-.35,1,1,0,0,1-.36-.74.89.89,0,0,1,.15-.45,3.43,3.43,0,0,1,.33-.48L56.32,9a2.33,2.33,0,0,0,.32-.55,1.31,1.31,0,0,0,.13-.57,1.37,1.37,0,0,1,.75.09.55.55,0,0,1,.35.54c.42-.55.78-.82,1.09-.82a.77.77,0,0,1,.65.32,1,1,0,0,1,.21.63,1.16,1.16,0,0,1-.23.62c-.14.21-.29.41-.43.58a.87.87,0,0,0-.22.41c0,.12,0,.18.13.18a.52.52,0,0,0,.33-.21,4.8,4.8,0,0,0,.36-.47c.11,0,.17.08.16.25a1.26,1.26,0,0,1-.1.38,3.06,3.06,0,0,1-.27.5,1.57,1.57,0,0,1-.44.45A1,1,0,0,1,58.56,11.5Z"/><text class="cls-16" transform="translate(60.51 8.19)">®</text><path class="cls-5" d="M54.12,13.16a1.6,1.6,0,0,1-.64,1.25,2.44,2.44,0,0,1-1.54.51H33.32c-1.09,0-.44,0-.41-.12.29-.22,1.35-1.1,1.45-1.51,0-.13,0,0,0-.13Z"/><path class="cls-2" d="M35.55,14.25h-.3l-.07.15h-.12l.38-.71h.13l.13.71h-.12Zm0-.09-.06-.33-.18.33Z"/><path class="cls-2" d="M36.15,14.39a.27.27,0,0,1-.08-.07.12.12,0,0,1,0-.09v0h.12a.08.08,0,0,0,0,.08.16.16,0,0,0,.09,0l.1,0a.09.09,0,0,0,0-.08s0,0,0-.05l0,0-.08,0-.1-.05a.15.15,0,0,1-.06,0,.17.17,0,0,1,0-.1.2.2,0,0,1,0-.11.16.16,0,0,1,.09-.07.3.3,0,0,1,.26,0,.16.16,0,0,1,.08.06.36.36,0,0,1,0,.1h-.12a.11.11,0,0,0,0-.07l-.08,0-.1,0a.11.11,0,0,0,0,.08.06.06,0,0,0,0,0l0,0,.08,0,.1.05a.17.17,0,0,1,.06.06.14.14,0,0,1,0,.09.2.2,0,0,1,0,.11.31.31,0,0,1-.09.07.32.32,0,0,1-.14,0Z"/><path class="cls-2" d="M37.28,14.25H37l-.07.15h-.12l.38-.71h.13l.13.71h-.12Zm0-.09-.06-.33-.18.33Z"/><path class="cls-2" d="M38.27,13.72a.27.27,0,0,1,.11.1.24.24,0,0,1,0,.15.22.22,0,0,1,0,.08.46.46,0,0,1-.08.19.44.44,0,0,1-.15.12.46.46,0,0,1-.21,0h-.23l.13-.71h.23A.43.43,0,0,1,38.27,13.72Zm-.08.52a.27.27,0,0,0,.1-.19.2.2,0,0,0,0-.07.17.17,0,0,0-.06-.14.2.2,0,0,0-.16-.06H38l-.09.53H38A.27.27,0,0,0,38.19,14.24Z"/><path class="cls-2" d="M38.9,13.78l0,.22h.24v.09h-.25l0,.22h.28l0,.09h-.39l.13-.71h.39l0,.09Z"/><path class="cls-2" d="M39.94,13.74a.14.14,0,0,1,.06.12v0a.31.31,0,0,1-.06.13.27.27,0,0,1-.14.08l.13.29h-.14l-.12-.28h-.09l0,.28h-.11l.12-.71h.25A.25.25,0,0,1,39.94,13.74Zm-.06.13a.06.06,0,0,0,0-.06.12.12,0,0,0-.09,0h-.13l0,.24h.13a.15.15,0,0,0,.1,0,.11.11,0,0,0,0-.09S39.88,13.88,39.88,13.87Z"/><path class="cls-2" d="M40.43,14.37a.23.23,0,0,1-.11-.11.24.24,0,0,1,0-.15.4.4,0,0,1,.06-.22.28.28,0,0,1,.15-.15.37.37,0,0,1,.21-.06.27.27,0,0,1,.16,0,.27.27,0,0,1,.11.1A.42.42,0,0,1,41,14a.43.43,0,0,1-.06.22.54.54,0,0,1-.15.15.4.4,0,0,1-.22.06A.33.33,0,0,1,40.43,14.37Zm.32-.11a.4.4,0,0,0,.1-.12.37.37,0,0,0,0-.15.2.2,0,0,0-.06-.15.2.2,0,0,0-.14-.05.24.24,0,0,0-.15,0,.26.26,0,0,0-.1.11.29.29,0,0,0,0,.16.18.18,0,0,0,.2.2A.26.26,0,0,0,40.75,14.26Z"/><path class="cls-2" d="M42.33,14.23l.15.17h-.16l-.07-.09a.42.42,0,0,1-.12.08l-.14,0a.19.19,0,0,1-.16-.05.15.15,0,0,1-.06-.13.25.25,0,0,1,0-.15A.38.38,0,0,1,42,14a.12.12,0,0,1,0-.09.2.2,0,0,1,0-.11.27.27,0,0,1,.08-.07.22.22,0,0,1,.24,0,.13.13,0,0,1,0,.1v0h-.12v0a.06.06,0,0,0,0,0h-.05a.08.08,0,0,0-.06,0,.09.09,0,0,0,0,.06.07.07,0,0,0,0,.05l0,.06.16.19.09-.12h.13l-.12.16Zm-.14,0L42,14.05a.24.24,0,0,0-.1.06.14.14,0,0,0,0,.1.11.11,0,0,0,0,.08l.08,0A.28.28,0,0,0,42.19,14.24Z"/><path class="cls-2" d="M43.81,13.74a.17.17,0,0,1,0,.12v0a.31.31,0,0,1-.06.13.32.32,0,0,1-.14.08l.12.29h-.14l-.11-.28h-.09l0,.28h-.12l.13-.71h.24A.26.26,0,0,1,43.81,13.74Zm-.07.13a.06.06,0,0,0,0-.06s0,0-.08,0H43.5l0,.24h.13a.17.17,0,0,0,.1,0,.13.13,0,0,0,.05-.09Z"/><path class="cls-2" d="M44.35,13.78l0,.22h.25l0,.09H44.3l0,.22h.27l0,.09h-.39l.13-.71h.39l0,.09Z"/><path class="cls-2" d="M45,14.39a.27.27,0,0,1-.08-.07.12.12,0,0,1,0-.09v0H45a.08.08,0,0,0,0,.08.12.12,0,0,0,.09,0,.22.22,0,0,0,.1,0,.09.09,0,0,0,0-.08s0,0,0-.05l0,0-.08,0A.46.46,0,0,1,45,14,.1.1,0,0,1,45,14a.17.17,0,0,1,0-.1.2.2,0,0,1,0-.11.16.16,0,0,1,.09-.07.3.3,0,0,1,.26,0,.16.16,0,0,1,.08.06.36.36,0,0,1,0,.1h-.12a.11.11,0,0,0,0-.07l-.08,0-.1,0a.11.11,0,0,0,0,.08.09.09,0,0,0,0,0l0,0,.07,0,.11.05a.17.17,0,0,1,.06.06.14.14,0,0,1,0,.09.2.2,0,0,1,0,.11l-.1.07a.28.28,0,0,1-.13,0Z"/><path class="cls-2" d="M46.26,13.69l0,.09h-.18L46,14.4h-.12l.11-.62h-.19l0-.09Z"/><path class="cls-2" d="M46.91,14.25h-.3l-.07.15h-.13l.38-.71h.14l.13.71h-.13Zm0-.09,0-.33-.18.33Z"/><path class="cls-2" d="M47.61,13.69l-.08.45v0a.12.12,0,0,0,0,.09.17.17,0,0,0,.1,0,.18.18,0,0,0,.13,0,.23.23,0,0,0,.06-.12l.08-.45h.12l-.08.45a.34.34,0,0,1-.06.15l-.12.09a.37.37,0,0,1-.15,0,.21.21,0,0,1-.16-.06.16.16,0,0,1-.07-.15.13.13,0,0,1,0-.06l.08-.45Z"/><path class="cls-2" d="M48.81,13.74a.14.14,0,0,1,.06.12v0a.31.31,0,0,1-.06.13.27.27,0,0,1-.14.08l.13.29h-.14l-.12-.28h-.09l0,.28h-.11l.12-.71h.25A.25.25,0,0,1,48.81,13.74Zm-.06.13a.06.06,0,0,0,0-.06.12.12,0,0,0-.09,0H48.5l0,.24h.13a.15.15,0,0,0,.1,0,.11.11,0,0,0,.05-.09S48.75,13.88,48.75,13.87Z"/><path class="cls-2" d="M49.58,14.25h-.3l-.07.15h-.12l.37-.71h.14l.13.71h-.12Zm0-.09-.05-.33-.18.33Z"/><path class="cls-2" d="M50.62,14.4h-.11l-.26-.53-.09.53H50l.13-.71h.11l.26.53.09-.53h.12Z"/><path class="cls-2" d="M51.56,13.69v.09h-.19l-.11.62h-.12l.11-.62h-.19l0-.09Z"/><path class="cls-2" d="M52,13.78,52,14h.24v.09h-.25l0,.22h.28l0,.09h-.39l.13-.71h.39l0,.09Z"/><text class="cls-17" transform="translate(60.33 8.01)">®</text></g></g></svg>