<svg xmlns="http://www.w3.org/2000/svg" viewBox="0 0 393.88 393.88"><defs><style>.cls-1{fill:#f7f7f7;}.cls-2{fill:#232323;}.cls-3{fill:#fbe17a;}.cls-4{fill:#fae079;}.cls-5{fill:#f4a919;}.cls-6{fill:#ed1c24;}.cls-7{fill:#6b2811;}</style></defs><g id="Capa_2" data-name="Capa 2"><g id="Capa_1-2" data-name="Capa 1"><circle class="cls-1" cx="196.94" cy="196.94" r="196.94"/><path class="cls-2" d="M304.71,288.77A43.1,43.1,0,0,0,298,282.2a69.28,69.28,0,0,0-13.36-8.06c-4.81-2.29-9.71-4.42-14.36-7-4.39-2.42-8.7-5.08-11.41-10,8.36-2.85,16.45-5.63,20.45-13.74a126.59,126.59,0,0,1-26.51-61.71c6.18-4.22,11.9-7.4,16.75-11.6,14-12.18,25.47-26.4,30.79-44.6a37.67,37.67,0,0,0,1.58-8.62c.5-10-4.72-16.38-15.71-21.88A40.56,40.56,0,0,0,279,92.48a37.58,37.58,0,0,0-6.31-1.22A53.16,53.16,0,0,0,256,92.41c-.61-5.93-3-10-6.61-12.74-3.07-2.32-7-3.66-11.58-4.36.66-2.87,1.29-5.34,1.8-7.83,3-14.92-4.41-29.32-18-34.67-11.65-4.59-22.74-3.1-33.14,3.71-2.64,1.74-5.09,3.75-7.57,5.58-2.69-2.45-4.92-4.82-7.49-6.78-10.92-8.39-24-7.88-33.59,1.22C134.23,41.8,131,48.44,129,55.7c-.55,1.95-1,3.91-2,7.63-1.6-2.29-2.22-3.59-3.2-4.52-10.27-9.83-24.3-9.52-34,.79-8.22,8.72-10,19.39-7.53,30.48,1.91,8.44,5.55,16.49,8.55,25-1.68,3.06-3.89,6.62-5.63,10.39-5.11,11.08-4.37,22,1.67,31.07a38.15,38.15,0,0,0,7.54,8.24c6.58,5.41,14.23,8.61,22.21,11.18,6.29,2,12.06,4.81,16.41,10,3.69,4.38,5.2,9.44,3.8,14.92-2.2,8.7-7.48,14.76-16.45,17.13-1.73.45-3.47.93-5.57,1.5,1.34,12.61,9.26,17.84,21,19.84-4.72,3.13-9,5.07-13.71,4.9-4.48-.17-8.92-1.25-13.74-2,.42,8.72,2.15,16.9,9,23.15s14.87,7,23.62,6.14a44,44,0,0,1-26.66,11.8,63.09,63.09,0,0,1-20.39-2c.21,13.2,2.68,24.81,9.21,35.28,9.4,15.05,24.2,20,40.9,14.15,1.66-.58,3.35-1.1,5.83-1.93-.46,2.25-.77,3.74-1.07,5.23-1.62,7.82.22,15,5.53,20.71,7.36,8,16.77,11.57,27.63,10,11.13-1.58,19-8,24.26-17.82,1.25-2.36,2.48-4.73,3.88-7.42,8.63,6.42,17.36,8.15,27,4.47,9.62,11.88,20.86,20.94,36.92,18.23,16.71-2.81,24.58-14.41,26.37-30.43,6.79-3.21,9.87-8.75,11.47-15.3C314.36,306.1,311.38,296.92,304.71,288.77ZM288.13,103.12c1.26.93,2.42,2,3.55,3l.57.5c.19.17.37.35.56.5l0,0,.34.3s0,0,0,0c-.49.88-.62,1.48-.91,1.57-13,3.88-21.2,13.76-29.46,23.51-4,4.77-7.31,10.21-11.53,14.8C235.12,165,215,168.4,192.73,162.69c-5.77-1.47-11.24-4.1-16.75-6.17-2.24,1-2.67,2.54-1.8,4.6,1.6,3.85,2.94,7.82,4.76,11.56,10.67,21.95,24.4,41.56,44,56.6,11,8.47,23.09,14.58,36.94,16.84,2,.32,3.88.94,6.49,1.59-8.9,5.67-17.63,5.29-26.58,2.61S223,242.52,216,236.23c-14.36-12.92-24.57-29-33.73-45.67-4.11-7.47-8-15.26-10.53-23.35-4.26-13.6,1.41-19,15.17-15.5,5.15,1.32,10.3,2.71,15.4,4.21a16.08,16.08,0,0,0,11.52-1,10.38,10.38,0,0,0,1.8-1l.4-.31.12-.1a3.53,3.53,0,0,0,.59-.71,2.59,2.59,0,0,0,.28-.55,3.51,3.51,0,0,0-.11-2.39l-.19-.07,0,0,.14-.15c0,.09.06.16.08.24s0,0,0,0a4.68,4.68,0,0,0,.85.25l.28,0a3,3,0,0,0,2.76-1.27,5,5,0,0,0,.39-.52,12.58,12.58,0,0,0,.8-1.49c2-4.16,3.81-8.44,5.48-12.75,2.1-5.39,3.68-11,6-16.28C244.38,93.18,273.14,92.21,288.13,103.12Zm-68.68,75.55c5.72-4.57,12.84-3,16.83,3.58,3,4.92,3.86,10.36,3.73,16-.2,7.92,0,15.78,3.43,23.15,1.24,2.64,2.67,5.19,4,7.79-.5.42-1,.84-1.51,1.24-18-9.3-33-21.54-40.39-42.46l4.63-6.21c6.33.48,8.81,4.11,10.51,8.72.83,2.24,1,5.27,5,4.7C228.14,188,221.76,184,219.45,178.67Zm32.77-83.5c-11.72,5-19.6,14-24.24,27.46L215.34,107a43.54,43.54,0,0,1,14.33-21.4C239.36,77.83,249.57,82,252.22,95.17ZM208.35,38.65c20.22-.11,28.53,15,23.42,29.63a61.85,61.85,0,0,1-2.39,5.79,57.25,57.25,0,0,1-2.94,5.4c-5,8-10.27,15.82-15.66,24.07-12-9.06-25.13-11.09-39.39-5.53-2.13-5.46,0-10.43,1-15.18.5-2.35,1-4.7,1.64-7a165.73,165.73,0,0,1,5.11-16.26C184.06,46.14,194.64,38.74,208.35,38.65ZM134.43,69.73c.25-9.25,3.15-17.69,10.09-24.3,8.69-8.28,23.55-6.56,30.33,3.42,1.5,2.18,1.15,4.16.48,6.53-2.05,7.2-4,14.41-5.75,21.67-.3,1.25-.59,2.48-.88,3.73-1.14,4.92-1.29,10.06-2.42,15-.64,2.77-1.71,6.2-3.77,7.76A61.89,61.89,0,0,0,146,122.88c-.31.54-1,.88-2.55,2.2-1.82-11.27-4.79-22-6.83-32.66A105.24,105.24,0,0,1,134.43,69.73Zm-42,4.75a30.66,30.66,0,0,1,6.24-9.75c5.58-5.78,13.07-5.64,19.32-.55,5.88,4.78,8.77,11.27,10.63,18.27.56,2.11,1.1,4.2,1.65,6.31L132,95.6q1.57,6.27,3.17,12.53l1.62,6.26q.83,3.12,1.68,6.24a44.44,44.44,0,0,1,.83,19.22c-.55,3.37-.85,6.79-1.34,10.84l-3.24-3c-5.68-5.4-11.2-11-17.07-16.18-.66-.57-1.3-1.15-1.94-1.73s-1.06-.94-1.57-1.41c-1.32-1.21-2.63-2.43-3.92-3.69-.43-.41-.86-.83-1.28-1.26-.94-.93-1.85-1.86-2.73-2.82-.24-.25-.46-.51-.69-.75a59.77,59.77,0,0,1-11.31-17.16C90.42,93.56,88.58,84.05,92.44,74.48ZM123,225.35c1.57-.88,2.74-1.56,3.92-2.21,17.92-9.79,19.71-35.15,3.1-47-4.85-3.47-10.44-5.93-15.8-8.64-6.41-3.25-12.63-6.51-17.95-11.66-.42-.41-.83-.82-1.21-1.25-.22-.23-.43-.48-.63-.71s-.45-.53-.65-.8-.43-.57-.65-.86-.31-.44-.45-.66-.32-.48-.46-.71-.15-.24-.23-.37a7.62,7.62,0,0,1-.38-.69,1.63,1.63,0,0,1-.19-.34c-.15-.27-.29-.54-.41-.81a1.64,1.64,0,0,1-.14-.3c-.13-.28-.26-.55-.38-.84l-.06-.17a.25.25,0,0,1,0-.07c-.09-.26-.19-.51-.29-.76,0-.09-.07-.19-.09-.28s-.13-.39-.2-.58-.17-.56-.24-.85-.16-.59-.23-.89l-.09-.41c-.06-.31-.12-.64-.17-.95s-.07-.5-.1-.75a4,4,0,0,1-.07-.59c0-.31-.06-.63-.07-1s0-.75,0-1.12a24.68,24.68,0,0,1,3.1-11.77c1.27-2.37,2.85-4.57,4.42-7q3.18,2.65,6.31,5.24l1.71,1.43,7.79,6.47c5.22,4.37,10.36,8.68,15.46,13.06,6.54,5.6,10.26,12.9,12.15,21.32,1.25,5.56,3.22,10.95,5.19,17.55l7.45-8.27V195l6.13-1.84c2.09,4.08,0,7.83-.53,11.57a54.62,54.62,0,0,1-8.91,23.09C142.26,237.83,129.35,237,123,225.35ZM235.33,335.16a14.09,14.09,0,0,1-16.25,2c-4.43-2.16-7.18-5.26-6.71-11,.09-1.19.15-2.38.18-3.58,0-.46,0-.93,0-1.4.07-4.94-.26-9.91-.31-14.86l-1.34,0c-.45,4.77-.86,9.55-1.35,14.33-.07.71-.15,1.41-.23,2.1a1.38,1.38,0,0,0,0,.2c-.08.57-.16,1.14-.25,1.7L209,325c-.09.6-.2,1.19-.32,1.79s-.27,1.31-.42,2c-.1.48-.22,1-.35,1.46-.07.24-.13.48-.19.72l-.48,1.65c-.2.66-.43,1.31-.65,2-.17.48-.36.95-.55,1.43-.09.23-.18.47-.28.69-.19.48-.4.95-.61,1.42-.55,1.18-1.15,2.35-1.81,3.48-.16.28-.33.56-.5.84a36.78,36.78,0,0,1-3.51,4.82c-.23.25-.46.51-.68.77a38.68,38.68,0,0,1-2.95,2.91c-8.13,7.23-17.56,9.12-27.82,5.1-12-4.72-15.92-17.14-8.68-27.91,2.18-3.23,5.09-6,7.82-8.83.6-.62,1.18-1.25,1.76-1.89l.13-.15c.46-.51.9-1,1.34-1.54l.33-.38c.47-.57.93-1.15,1.38-1.73s1-1.3,1.48-2c.36-.5.73-1,1.07-1.52.5-.75,1-1.51,1.48-2.27l.44-.71c.72-1.19,1.42-2.41,2.07-3.65l.33-.65c.28-.52.55-1.06.8-1.6,0,0,0,0,0,0,.27-.59.55-1.18.81-1.77.09-.19.17-.38.25-.57.34-.79.68-1.58,1-2.38.2-.53.41-1.07.61-1.62.1-.27.19-.54.28-.8.15-.41.29-.82.42-1.24s.22-.7.33-1a.75.75,0,0,1,.07-.18c.18-.57.34-1.14.5-1.71.23-.79.44-1.58.63-2.39.15-.59.29-1.18.42-1.78a4,4,0,0,0,.11-.47c0-.22.1-.42.14-.64.14-.65.27-1.31.39-2a17.26,17.26,0,0,0-.51-6.94c-1.12,3.23-2.13,6.5-3.35,9.69-.83,2.13-1.72,4.22-2.67,6.25-.38.78-.76,1.55-1.15,2.31l-1,1.81a.59.59,0,0,1,0,.08c-.37.66-.74,1.32-1.13,2s-.77,1.28-1.17,1.92-.82,1.26-1.24,1.88l-.06.09c-.35.51-.7,1-1.07,1.51-.5.7-1,1.38-1.55,2.06-.36.46-.73.91-1.11,1.37l-.48.58c-.41.47-.82.93-1.25,1.39,0,0,0,0,0,0-.47.52-1,1.05-1.46,1.55s-.77.78-1.16,1.15l-.8.77c-.53.5-1.09,1-1.66,1.49s-1,.83-1.45,1.22-.71.57-1.08.84a1.06,1.06,0,0,1-.24.19c-.27.22-.54.42-.82.63-.45.33-.92.67-1.4,1s-1.08.74-1.64,1.1a3.87,3.87,0,0,1-.43.27c-.56.37-1.14.72-1.72,1.07a37.89,37.89,0,0,1-22.61,5.44c-9.34-.73-16.91-4.68-22.2-12.52-4.2-6.24-6.16-13.22-7.11-20.88,3.89,0,7.07,0,10.25,0,1,0,1.94,0,2.91-.05l1.16-.07c.4,0,.79-.05,1.17-.09s.78-.07,1.15-.12c.78-.09,1.54-.19,2.29-.32l1.13-.21c.46-.08.92-.18,1.38-.29.79-.17,1.56-.36,2.32-.59a39.75,39.75,0,0,0,4.64-1.61c.36-.15.7-.29,1-.45s.86-.39,1.27-.59.84-.42,1.26-.65.88-.47,1.31-.72.66-.38,1-.59l.29-.18c.37-.22.73-.46,1.09-.7a43.93,43.93,0,0,0,4.65-3.57c5.93-5.2,9.85-11.64,10.43-19.75l-1-1.06c-6.06,2.94-12.14,5.63-19.2,4.95-8-.77-13.43-5.08-16.07-13.62a33.91,33.91,0,0,0,25.2-7.63c16.06-12.9,22.25-30.16,21.52-50.3a25.87,25.87,0,0,0-1.2-4.94,25.16,25.16,0,0,0-2.84.33,27.79,27.79,0,0,0-2.79.94c-2.49-7.17.83-14,0-20.9-5-.46-5.22,5-8.89,6.39a40.46,40.46,0,0,1-4.1-19.93c.46-17.31,6.24-32.62,19.12-44.73s30-13.65,44.61-4c6.64,4.39,12,10.16,16.82,16.45a8.76,8.76,0,0,1,1.53,8.46c-1.94,6.49-4.56,12.6-8.78,17.95-.19.2-.36.39-.54.56a14.62,14.62,0,0,1-1.12,1,12.49,12.49,0,0,1-2.85,1.73.11.11,0,0,1-.08,0,12.09,12.09,0,0,1-1.23.44q-.31.1-.63.18a10.41,10.41,0,0,1-1.24.23h0a16.46,16.46,0,0,1-5-.13,26.15,26.15,0,0,1-3.13-.73c-5.77-1.71-11.41-3.9-17.24-5.28-11.14-2.65-18.38,3.82-16.85,15.18a47.26,47.26,0,0,0,3.86,13.27c8.2,17.71,17.55,34.77,29.62,50.2,7.19,9.2,15.21,17.5,25.66,23.65.32,4,.45,8.12,1,12.2,1.67,11.84,6.52,22.62,11.2,33.48,2.28,5.29,4.49,10.77,5.53,16.39.12.62.22,1.24.28,1.85,0,.21.05.44.07.65,0,.39.07.78.09,1.16s0,.64,0,.95a23,23,0,0,1-.56,5.46,10.75,10.75,0,0,1-.31,1.21c-.12.4-.23.81-.37,1.19A24.28,24.28,0,0,1,235.33,335.16Zm64-8.67c-3-12.25-8.49-22.31-17.58-29.44A47.58,47.58,0,0,0,271.53,291l-1,1.11c2.63,2.46,5.2,5,7.57,7.63a52.34,52.34,0,0,1,8.78,12.87c2.76,5.95,4.45,12.05,4,18.75-1.15,16.36-17.18,25.49-30.78,21.89a36,36,0,0,1-18.8-11.78c7.6-7.73,10.1-16.9,9.12-26.89-.11-1.1-.26-2.21-.45-3.32a48.89,48.89,0,0,0-3.76-11.84c-3.67-8-8.09-15.65-11.56-23.72-2.15-5-3.29-10.54-4.52-15.91-.41-1.84.26-3.93.44-6l23.05,5.27c4.68,10,14.81,15.31,24.56,21.13a135.88,135.88,0,0,1,13.31,8.57l.64.5c6.93,5.47,11.87,12.47,12.85,21.52C305.6,316.64,304.67,322.23,299.3,326.49Z"/><path class="cls-3" d="M216.84,149.58c-4.49,5-10.06,5.21-16,3.46s-11.41-3.9-17.24-5.29c-11.14-2.64-18.38,3.83-16.85,15.19a47.11,47.11,0,0,0,3.87,13.28c8.19,17.7,17.55,34.76,29.6,50.19,7.19,9.2,15.22,17.51,25.67,23.64.32,4,.45,8.13,1,12.21,1.66,11.84,6.52,22.62,11.2,33.48,2.27,5.29,4.48,10.77,5.53,16.39,1.69,9-1.16,17-8.34,23a14.12,14.12,0,0,1-16.25,2c-4.42-2.16-7.17-5.27-6.71-11,.52-6.57,0-13.22-.1-19.84l-1.34,0c-.45,4.78-.87,9.56-1.35,14.34-1.19,11.65-4.89,22.25-13.87,30.23-8.13,7.23-17.56,9.12-27.82,5.1-12-4.71-15.92-17.15-8.68-27.9,2.18-3.24,5.1-6,7.83-8.84a69.82,69.82,0,0,0,18.58-36.66,17.09,17.09,0,0,0-.51-6.94c-1.11,3.23-2.12,6.5-3.35,9.68-5.57,14.47-14.17,26.53-27.77,34.56a37.76,37.76,0,0,1-22.61,5.45c-9.34-.73-16.91-4.69-22.2-12.52-4.2-6.23-6.17-13.21-7.11-20.88,3.9,0,7.07,0,10.25,0,11.36.12,21.49-3.3,30.05-10.8,5.93-5.2,9.84-11.64,10.43-19.75l.64-1.06H151.8c-6.06,2.94-12.14,5.63-19.2,4.95-8-.77-13.43-5.08-16.07-13.63a33.86,33.86,0,0,0,25.2-7.62c16.06-12.9,22.26-30.16,21.52-50.3a26,26,0,0,0-1.21-4.94,25,25,0,0,0-2.83.33c-.84.19-1.65.55-2.79.94-2.5-7.17.83-14,0-20.89-5-.47-5.23,5-8.89,6.37a40.29,40.29,0,0,1-4.1-19.92c.46-17.31,6.24-32.62,19.12-44.74s30-13.63,44.62-4c6.64,4.39,12,10.17,16.81,16.45a8.78,8.78,0,0,1,1.54,8.46c-2,6.49-4.57,12.61-8.8,18ZM190.6,131.31a47.48,47.48,0,0,0-6.34,2.44,28.13,28.13,0,0,0-6.1,4.4c-1.48,1.49-1.33,3.33,1.69,4.71,5.08-6.75,12.35-9.31,20.35-8.69-2.21-2.53-4.45-4.91-6.46-7.47-3.82-4.87-8.65-7.77-14.92-7.09-8.4.9-12.4,8-10.5,18C177.38,124.63,182.3,123,190.6,131.31Z"/><path class="cls-4" d="M270.55,292.08c6.45,6,12.56,12.33,16.35,20.49,2.76,5.95,4.45,12.06,4,18.74-1.15,16.37-17.19,25.5-30.78,21.9a35.94,35.94,0,0,1-18.8-11.79c8.44-8.56,10.58-18.92,8.66-30.2a48.43,48.43,0,0,0-3.75-11.84c-3.67-8-8.1-15.65-11.56-23.72-2.16-5-3.29-10.54-4.52-15.91-.42-1.84.26-3.93.44-6l23.05,5.28c4.68,10,14.81,15.31,24.55,21.13a128.46,128.46,0,0,1,14,9.07c6.92,5.47,11.86,12.47,12.84,21.51.63,5.88-.31,11.47-5.68,15.73-4-16.28-12.37-28.69-27.78-35.53l-2.91-.64-.25.85Z"/><path class="cls-5" d="M216.84,149.58l-.15.16c3,1.32,4.35-.84,5.33-2.89,2-4.17,3.79-8.44,5.47-12.75,2.1-5.4,3.68-11,6-16.29,10.88-24.63,39.63-25.61,54.63-14.69,1.82,1.33,3.44,2.94,5.06,4.34-.5.88-.63,1.49-.92,1.58-13,3.88-21.2,13.76-29.45,23.51-4,4.77-7.32,10.21-11.54,14.8-16.16,17.59-36.28,21.06-58.55,15.34-5.77-1.48-11.24-4.11-16.75-6.17-2.25,1-2.67,2.53-1.81,4.6,1.61,3.85,2.94,7.82,4.76,11.56,10.68,21.95,24.42,41.56,44,56.61,11,8.45,23.08,14.57,36.92,16.83,2,.32,3.88.94,6.5,1.59-8.9,5.67-17.64,5.3-26.58,2.61S223,242.52,216,236.24c-14.37-12.93-24.57-29-33.73-45.68-4.1-7.48-8-15.25-10.53-23.35-4.26-13.6,1.41-19,15.16-15.5,5.16,1.33,10.31,2.71,15.41,4.21a16,16,0,0,0,11.52-1C216,153.91,218.06,152.6,216.84,149.58Z"/><path class="cls-6" d="M210.77,103.54c-12-9.06-25.12-11.09-39.37-5.53-2.14-5.46,0-10.43,1-15.19a166.54,166.54,0,0,1,6.74-23.28c4.95-13.4,15.53-20.8,29.23-20.88,20.23-.12,28.54,15,23.43,29.62a58,58,0,0,1-5.33,11.19C221.47,87.49,216.17,95.3,210.77,103.54Z"/><path class="cls-6" d="M138,150.69c-1.31-1.22-2.28-2.1-3.24-3-5.68-5.4-11.2-11-17.07-16.17-9.42-8.34-18.49-17-23.44-28.83-3.81-9.12-5.65-18.63-1.8-28.19a31,31,0,0,1,6.25-9.76c5.58-5.78,13.08-5.64,19.32-.56,5.88,4.79,8.76,11.28,10.63,18.28C132,95.15,135,108,138.49,120.63a44.43,44.43,0,0,1,.83,19.22C138.77,143.23,138.47,146.64,138,150.69Z"/><path class="cls-6" d="M123,225.35c1.56-.88,2.74-1.56,3.92-2.21,17.91-9.79,19.71-35.16,3.1-47-4.85-3.47-10.44-5.93-15.8-8.64-6.41-3.25-12.63-6.51-17.95-11.66-7.82-7.58-9.88-18.19-4.38-28.48,1.27-2.38,2.87-4.58,4.43-7,10.78,9,21.13,17.49,31.27,26.2,6.54,5.61,10.26,12.9,12.15,21.32,1.25,5.55,3.21,10.95,5.2,17.55,2.69-3,4.61-5.13,7.44-8.26v18l6.13-1.86c2.09,4.09,0,7.84-.54,11.58a54.48,54.48,0,0,1-8.9,23.09C142.26,237.83,129.34,237,123,225.35Z"/><path class="cls-6" d="M143.45,125.08c-3.1-19.18-9.52-36.7-9-55.34.25-9.26,3.14-17.7,10.08-24.31,8.7-8.28,23.56-6.56,30.35,3.42,1.48,2.18,1.14,4.16.47,6.54-2.39,8.41-4.68,16.87-6.64,25.39-1.13,4.92-1.28,10.06-2.41,15-.64,2.77-1.7,6.2-3.77,7.76A62,62,0,0,0,146,122.87C145.68,123.42,145,123.76,143.45,125.08Z"/><path class="cls-6" d="M245.93,230.45c-18-9.31-33-21.54-40.38-42.47l4.63-6.22c6.32.49,8.81,4.13,10.51,8.73.82,2.24,1,5.27,5,4.7,2.4-7.22-4-11.19-6.29-16.52,5.73-4.57,12.85-3,16.84,3.58,3,4.92,3.85,10.36,3.72,16-.18,7.92,0,15.79,3.45,23.15,1.23,2.65,2.66,5.2,4,7.8Z"/><path class="cls-6" d="M228,122.63,215.34,107a43.38,43.38,0,0,1,14.34-21.4c9.68-7.74,19.88-3.61,22.55,9.59C240.5,100.16,232.61,109.12,228,122.63Z"/><path class="cls-2" d="M190.6,131.31c-8.3-8.28-13.22-6.68-22.28,6.26-1.9-10,2.1-17.06,10.5-18,6.27-.68,11.1,2.22,14.92,7.09,2,2.56,4.25,4.94,6.46,7.47-8-.62-15.27,1.94-20.35,8.69-3-1.38-3.17-3.22-1.69-4.71a28.13,28.13,0,0,1,6.1-4.4A47.48,47.48,0,0,1,190.6,131.31Z"/><path class="cls-7" d="M151.8,260.3h1.64l-.64,1.06Z"/><path class="cls-7" d="M272.81,295.05l-2.18-.91c.08-.28.16-.56.25-.85l2.91.64Z"/></g></g></svg>